<svg xmlns="http://www.w3.org/2000/svg" viewBox="0 0 512 397.73"><defs><style>.cls-1{fill:#fff;}</style></defs><title>aumentar</title><g id="Capa_2" data-name="Capa 2"><g id="Capa_1-2" data-name="Capa 1"><polygon class="cls-1" points="163.6 263.57 128.56 298.61 151.92 321.97 81.84 321.97 81.84 251.89 105.2 275.25 140.24 240.21 163.6 263.57"/><polygon class="cls-1" points="348.4 193.49 383.44 158.46 360.08 135.1 430.16 135.1 430.16 205.17 406.8 181.81 371.76 216.85 348.4 193.49"/><path class="cls-1" d="M512,371.36v-345A26.4,26.4,0,0,0,485.63,0H26.37A26.4,26.4,0,0,0,0,26.37v345a26.4,26.4,0,0,0,26.37,26.37H485.63A26.4,26.4,0,0,0,512,371.36ZM450.47,107.67a8.8,8.8,0,0,1,8.79,8.79V340.6a8.8,8.8,0,0,1-8.79,8.79H61.53a8.8,8.8,0,0,1-8.79-8.79V116.46a8.8,8.8,0,0,1,8.79-8.79ZM215.35,53.84a8.79,8.79,0,0,1-8.79,8.79H44a8.79,8.79,0,0,1,0-17.58H206.56A8.78,8.78,0,0,1,215.35,53.84Zm254.9,0c0,4.85-2.38,8.79-5.32,8.79H448.32c-2.94,0-5.32-3.94-5.32-8.79s2.38-8.79,5.32-8.79h16.61C467.87,45.05,470.25,49,470.25,53.84Zm-46.93,0c0,4.85-2.38,8.79-5.32,8.79H401.38c-2.94,0-5.31-3.94-5.31-8.79s2.37-8.79,5.31-8.79H418C420.94,45.05,423.32,49,423.32,53.84Zm-46.94,0c0,4.85-2.37,8.79-5.31,8.79H354.45c-2.94,0-5.31-3.94-5.31-8.79s2.37-8.79,5.31-8.79h16.62C374,45.05,376.38,49,376.38,53.84Z"/></g></g></svg>