<svg xmlns="http://www.w3.org/2000/svg" viewBox="0 0 511.74 511.73"><defs><style>.cls-1,.cls-2{fill:#fff;}.cls-2{stroke:#d00030;stroke-miterlimit:10;stroke-width:15px;}</style></defs><title>h1</title><g id="Capa_2" data-name="Capa 2"><g id="Capa_1-2" data-name="Capa 1"><path class="cls-1" d="M493.57,312.49a52.2,52.2,0,0,0-24.22-11.65,53.91,53.91,0,0,0-10-.94c-.85,0-1.71,0-2.56.06a51.91,51.91,0,0,0-37.86-30.06,55.24,55.24,0,0,0-10.2-1c-1.14,0-2.26,0-3.38.1a52,52,0,0,0-37.5-29.21c-1.29-.24-2.59-.44-3.89-.59l7.85-41.18c2-10.55,3.09-16.17,3.66-19.44h0c3.6-16.91-2.59-34.17-16.56-46.16a54.32,54.32,0,0,0-25.19-12.17,52.11,52.11,0,0,0-60.93,41.4c-.78,4-10.46,53.38-18.41,94-15.61-17.26-31.63-21.06-42.7-21.06-17.71,0-34,9.75-43.51,26.08-9.91,17-10.46,37.44-1.43,53.46,14.7,26.06,23.91,67,26.08,82.73,4,28.91,23.91,49.55,44.86,67.55,23,19.78,59.55,35.56,100.18,43.28a215.08,215.08,0,0,0,39.89,4c66.5,0,112-38.77,124.87-106.43l8.19-43.52A52.29,52.29,0,0,0,493.57,312.49Zm-10.25,44.07-8.2,43.56c-7.69,40.51-35,98.52-132,80.09-38.74-7.36-69.91-22.2-87.15-37-17.4-14.95-32.68-30.55-35.37-50.13-2.6-18.89-12.7-63-29.43-92.67-12-21.24,16.64-59,45.35-22.53C245.25,289,264.26,319,264.26,319c2.23,1.74,2.69.88,3,.93.73.14,3.45-1.65,4.12-5.16S300.31,167,300.31,167a24.12,24.12,0,0,1,28.21-19.2,26.44,26.44,0,0,1,12.16,5.9c5.64,4.83,9,11.88,7.42,19.09,0,0-16.6,87-20.68,108.44,0,.05,0,.08,0,.13l-.85,4.47a3.93,3.93,0,0,0,7.72,1.47l.22-1.16a24.13,24.13,0,0,1,47.33,9.4l-3.24,17.17a3.87,3.87,0,0,0,7.6,1.45l.18-1c2.27-11.92,15.43-18,27.34-15.77a24.08,24.08,0,0,1,19.16,28.2L429.58,343a3.76,3.76,0,0,0,1.25,3.56,3.81,3.81,0,0,0,1.75.84,3.76,3.76,0,0,0,4.4-3l.24-1.32c2.06-10.84,15.37-16.93,26.9-14.73a24.12,24.12,0,0,1,19.2,28.21Z"/><g id="move_vertical"><polygon class="cls-1" points="125.56 197.31 71.75 251.13 107.63 287 0 287 0 179.38 35.88 215.25 89.69 161.44 125.56 197.31"/><polygon class="cls-1" points="161.44 89.69 215.25 35.88 179.38 0 287 0 287 107.63 251.13 71.75 197.31 125.56 161.44 89.69"/></g><circle class="cls-2" cx="107.52" cy="179.94" r="29.72"/><circle class="cls-2" cx="179.44" cy="108.02" r="29.72"/></g></g></svg>