<?xml version="1.0" encoding="utf-8"?>
<!-- Generator: Adobe Illustrator 22.1.0, SVG Export Plug-In . SVG Version: 6.00 Build 0)  -->
<svg version="1.1" id="Capa_1" xmlns="http://www.w3.org/2000/svg" xmlns:xlink="http://www.w3.org/1999/xlink" x="0px" y="0px"
	 viewBox="0 0 77.4 77.4" style="enable-background:new 0 0 77.4 77.4;" xml:space="preserve">
<style type="text/css">
	.st0{fill:#FFFFFF;}
</style>
<g id="XMLID_1_">
	<path id="XMLID_105_" class="st0" d="M38.9,9.1c3.6,0,6.5,3,6.5,6.6s-2.9,6.6-6.5,6.6s-6.5-3-6.5-6.6S35.3,9.1,38.9,9.1"/>
	<path id="XMLID_17_" class="st0" d="M15.1,30.2L15.1,30.2v0.2c0,0.3,0.2,0.6,0.5,0.8s1,0.2,1.8,0.2c0.6,0,1.1-0.1,1.4-0.2
		c0.3-0.2,0.5-0.3,0.5-0.5c0-0.4-0.7-0.6-2-0.9c-0.2,0-0.3-0.1-0.4-0.1s-0.2,0-0.4-0.1c-2.2-0.4-3.6-0.8-4.2-1.2
		c-0.3-0.2-0.5-0.5-0.7-0.7c-0.2-0.3-0.2-0.6-0.2-0.9c0-0.9,0.5-1.5,1.5-2s2.5-0.7,4.4-0.7s3.4,0.2,4.2,0.6c0.9,0.4,1.4,1.1,1.4,2
		v0.2h-3.6v-0.1c0-0.3-0.2-0.5-0.5-0.7c-0.4-0.2-0.9-0.2-1.6-0.2c-0.5,0-0.9,0.1-1.3,0.2c-0.3,0.1-0.5,0.2-0.5,0.5
		c0,0.4,0.8,0.7,2.3,0.9c0.3,0.1,0.5,0.1,0.7,0.1c1.1,0.2,2,0.3,2.4,0.5s0.9,0.3,1.3,0.5s0.7,0.5,0.9,0.8s0.3,0.7,0.3,1.1
		c0,0.9-0.5,1.6-1.6,2C20.6,33,19,33.2,17,33.2s-3.5-0.2-4.4-0.7s-1.3-1.2-1.3-2.2v0.1h3.8C15.1,30.4,15.1,30.2,15.1,30.2z
		 M25.1,33.2v-8.7h10.3v1.9H29v1.4h6v1.9h-6v1.7h6.7v1.9L25.1,33.2L25.1,33.2z M37.3,33.2v-8.7h4.9l5.2,5.8v-5.8h3.8v8.7h-5.1
		L41,27.3v5.9H37.3z M61.2,29.7l-1.9-3.1l-2,3.1H61.2z M55.3,33.2h-3.9l6-8.7h4.3l5.7,8.7H63l-0.9-1.6h-6L55.3,33.2z"/>
	<path id="XMLID_16_" class="st0" d="M19.9,63.8l-3.4-3.3L27,42.2c0.5-1-0.2-2.3-1.3-2.3H8.4v-4.6h27.8L19.9,63.8z"/>
	<path id="XMLID_15_" class="st0" d="M57.5,63.8l3.4-3.3L50.5,42.2c-0.5-1,0.2-2.3,1.3-2.3h17.3v-4.6H41.2L57.5,63.8z"/>
	<path id="XMLID_7_" class="st0" d="M38.7,40.3L38.7,40.3L54.4,66l-4.1,2.2L40,51.4c-0.6-1-2-1-2.7,0c-3.4,5.7-10,16.9-10,16.9
		l-4.1-2C23.4,66.3,37.8,41.7,38.7,40.3"/>
</g>
</svg>
