<svg xmlns="http://www.w3.org/2000/svg" viewBox="0 0 426.6 511.83"><defs><style>.cls-1{fill:#fff;}</style></defs><title>rotar</title><g id="Capa_2" data-name="Capa 2"><g id="Capa_1-2" data-name="Capa 1"><path class="cls-1" d="M288.65,85.46h115.1c-3.17-3.62-6.11-7.17-9.5-10.56C299.36-20,148.66-24.66,48.05,60.57L70.67,83.19c62.08-51.36,145.35-63.88,218-38Z"/><path class="cls-1" d="M137.8,466.65V426.38H22.7c3.17,3.62,6.11,7.16,9.51,10.56,94.88,94.88,245.58,99.56,346.2,14.33l-22.63-22.63c-62.08,51.36-145.34,63.88-218,38Z"/><path class="cls-1" d="M394.62,127.92H32a32,32,0,0,0-32,32v192a32,32,0,0,0,32,32H394.62a32,32,0,0,0,32-32v-192A32,32,0,0,0,394.62,127.92ZM355,351.93l-323.13-.07.07-192H355Zm47.28-72.61a7.6,7.6,0,0,1-7.6,7.6h-7.8a7.61,7.61,0,0,1-7.6-7.6V232.51a7.6,7.6,0,0,1,7.6-7.59h7.8a7.59,7.59,0,0,1,7.6,7.59Z"/></g></g></svg>