<svg xmlns="http://www.w3.org/2000/svg" viewBox="0 0 509.97 509.97"><defs><style>.cls-1{fill:#d00030;}</style></defs><title>close</title><g id="Capa_2" data-name="Capa 2"><g id="Capa_1-2" data-name="Capa 1"><path class="cls-1" d="M255,0A255,255,0,1,0,510,255,254.26,254.26,0,0,0,255,0Zm37.09,259.62L379,346.55a11.2,11.2,0,0,1,0,16.23L362.78,379a12.53,12.53,0,0,1-8.12,3.48,10.52,10.52,0,0,1-8.11-3.48l-86.93-86.92a5.6,5.6,0,0,0-8.11,0L164.58,379a12.51,12.51,0,0,1-8.11,3.48,10.5,10.5,0,0,1-8.11-3.48l-16.23-16.22a11.2,11.2,0,0,1,0-16.23l86.93-86.93a5.6,5.6,0,0,0,0-8.11l-86.93-86.93a11.19,11.19,0,0,1,0-16.22l16.23-16.23a11.19,11.19,0,0,1,16.22,0l86.93,86.93a5.6,5.6,0,0,0,8.11,0l86.93-86.93a12.53,12.53,0,0,1,8.11-3.48,10.53,10.53,0,0,1,8.12,3.48L379,148.36a11.19,11.19,0,0,1,0,16.22l-86.92,86.93C289.76,252.67,289.76,257.31,292.08,259.62Z"/></g></g></svg>