<svg xmlns="http://www.w3.org/2000/svg" viewBox="0 0 512 512.44"><defs><style>.cls-1{fill:#d00030;}.cls-2{fill:#fff;}</style></defs><title>m3</title><g id="Capa_2" data-name="Capa 2"><g id="Capa_1-2" data-name="Capa 1"><path class="cls-1" d="M291.59,206.32v31.36s-60.83-2.33-62.34.72a77.33,77.33,0,0,0-8,29.38c28,18.84,61.43,31.09,96.57,36.73a25.14,25.14,0,0,1-1.8-9.29V249.77c0-14.82,13.22-27.45,31.64-32.14V170.86a178.49,178.49,0,0,0-64.79,17.38C279.15,190.09,291.59,206.32,291.59,206.32Z"/><path class="cls-2" d="M371.82,149.76H339a196,196,0,0,0-45.17,8.91,36.32,36.32,0,0,0-7.49-10.09c-7.61-7.16-18.11-11-30.39-11-12.62,0-25.09,4-34.19,11l-9.22,7.11,16.72,42,1.29-.94q-4,4-7.45,8.38l-8.28,7.48v4.16a98.89,98.89,0,0,0-15,46l-.2,129.75c0,33.26,17.91,65.19,49.14,87.62,28.88,20.75,66.76,32.18,106.65,32.18S433.16,501,462,480.26c31.23-22.43,50-54.36,50-87.62V262.89C508.23,203.47,448.68,155.89,371.82,149.76Zm-2.23,27.94c61.89,4.94,110.58,41.75,113.45,87-25.08,16.91-55.13,27.9-86.67,33a22.74,22.74,0,0,0,1.62-8.33v-40.8c0-13.3-11.87-24.63-28.4-28.85Zm-14.2,60.63c7.83,0,14.2,4.57,14.2,10.2v40.8c0,5.62-6.37,10.2-14.2,10.2s-14.2-4.58-14.2-10.2v-40.8C341.19,242.9,347.56,238.33,355.39,238.33Zm-14.2-60.63v42c-16.53,4.22-28.4,15.55-28.4,28.85v40.8a22.74,22.74,0,0,0,1.62,8.33c-31.54-5.06-61.59-16.05-86.67-33a67.73,67.73,0,0,1,4-19H299.5V200.26h-8.37a47.78,47.78,0,0,0,5.51-12.82A164.84,164.84,0,0,1,341.19,177.7Zm142,215c0,50.61-57.33,91.79-127.79,91.79S227.6,443.29,227.6,392.68V291.17c36.78,19.61,81.15,30.2,127.79,30.2s91-10.59,127.79-30.2Z"/><rect class="cls-2" x="104.11" width="23.3" height="72.25" rx="11.25" ry="11.25"/><rect class="cls-2" x="104.11" y="159.26" width="23.3" height="72.25" rx="11.25" ry="11.25"/><rect class="cls-2" x="183.74" y="79.63" width="23.3" height="72.25" rx="11.25" ry="11.25" transform="translate(311.14 -79.63) rotate(90)"/><rect class="cls-2" x="24.48" y="79.63" width="23.3" height="72.25" rx="11.25" ry="11.25" transform="translate(151.88 79.63) rotate(90)"/><rect class="cls-2" x="160.41" y="23.32" width="23.3" height="72.25" rx="11.25" ry="11.25" transform="translate(92.43 -104.25) rotate(45)"/><rect class="cls-2" x="47.8" y="135.94" width="23.3" height="72.25" rx="11.25" ry="11.25" transform="translate(139.08 8.36) rotate(45)"/><rect class="cls-2" x="160.41" y="135.94" width="23.3" height="72.25" rx="11.25" ry="11.25" transform="translate(415.4 172.06) rotate(135)"/><rect class="cls-2" x="47.8" y="23.32" width="23.3" height="72.25" rx="11.25" ry="11.25" transform="translate(143.52 59.45) rotate(135)"/><circle class="cls-2" cx="115.76" cy="115.76" r="15.24"/><path class="cls-1" d="M255.91,153.07c11.28,0,19.17,4.27,23.3,11.06q.41.66.75,1.35c0,.05.05.1.07.14.2.41.4.82.57,1.24l.1.21a22.86,22.86,0,0,1,1,2.86l.09.33c.1.42.2.84.28,1.27l.06.25c.09.5.17,1,.23,1.51,0,.12,0,.23,0,.35.05.4.09.81.11,1.23,0,.15,0,.3,0,.45,0,.51.05,1,.05,1.54v0c0,.71,0,1.41-.09,2.11,0,.15,0,.31,0,.46-.07.67-.15,1.34-.27,2l-.06.32c-.11.58-.24,1.16-.39,1.73,0,.15-.07.3-.11.45-.17.62-.37,1.24-.58,1.85-.06.17-.12.34-.19.51-.18.5-.38,1-.59,1.5-.07.15-.12.3-.19.45-.25.56-.53,1.12-.81,1.68-.12.22-.23.44-.35.65-.24.46-.5.91-.76,1.36-.16.27-.33.54-.5.81s-.49.77-.74,1.15-.34.51-.52.76q-.48.7-1,1.38l-.66.86-.66.83c-.23.28-.46.57-.7.85a105.84,105.84,0,0,1-11,11l-7,5.85v.23h28.74v14.6H230.21V219.55l9.7-8.77c16.7-14.95,24.77-23.48,24.88-32.36,0-.35,0-.69,0-1,0-.11,0-.22,0-.34s0-.44-.07-.66l-.06-.39-.12-.59-.09-.39c-.08-.28-.16-.55-.25-.81s-.13-.34-.2-.51-.09-.23-.14-.34-.16-.34-.24-.51l-.15-.28c-.1-.17-.2-.35-.31-.52h0c-1.85-2.87-5.29-4.73-10.68-4.73-6.55,0-12.27,3.27-16.24,6.19l-5-12.61C236.75,156.57,245.75,153.07,255.91,153.07Z"/></g></g></svg>