<svg xmlns="http://www.w3.org/2000/svg" width="461.151" height="423.272" viewBox="0 0 461.151 423.272">
  <g id="Grupo_6933" data-name="Grupo 6933" transform="translate(-297.79 -65.91)">
    <g id="Grupo_6905" data-name="Grupo 6905" transform="translate(297.79 125.171)">
      <path id="Trazado_15241" data-name="Trazado 15241" d="M717.71,402.038H707.174a40.894,40.894,0,1,1,0-81.788h4.86a42.519,42.519,0,1,0,0-85.039H697.105a16.554,16.554,0,0,1,0-33.109h10.971a11.428,11.428,0,1,0,0-22.855H633.759a18.01,18.01,0,0,1-16.212-10.275,17.62,17.62,0,0,1-1.74-7.666V161.3a18.012,18.012,0,0,1,10.862-16.473,17.748,17.748,0,0,1,7.089-1.468h17.625a11.428,11.428,0,1,0,0-22.855H410.838a8.758,8.758,0,0,0,0,17.517h16.908a13.755,13.755,0,1,1,0,27.509H371.216a8.753,8.753,0,1,0,0,17.506h8.416a12.689,12.689,0,0,1,0,25.378H368.183a32.581,32.581,0,1,0,0,65.163h3.729a31.342,31.342,0,0,1,0,62.684q-1.925,0-3.816.1a74.128,74.128,0,0,0,3.816,148.157h345.8a41.236,41.236,0,0,0,0-82.473ZM680.622,120.5a11.428,11.428,0,1,0,11.428,11.428A11.427,11.427,0,0,0,680.622,120.5ZM346.654,165.526a8.753,8.753,0,1,0,8.753,8.753A8.754,8.754,0,0,0,346.654,165.526Z" transform="translate(-297.79 -120.5)" fill="#fff" fill-rule="evenodd"/>
    </g>
    <g id="Grupo_6932" data-name="Grupo 6932" transform="translate(354.563 67)">
      <g id="Grupo_6916" data-name="Grupo 6916" transform="translate(120.029)">
        <g id="Grupo_6912" data-name="Grupo 6912" transform="translate(0.047)">
          <g id="Grupo_6907" data-name="Grupo 6907">
            <g id="Grupo_6906" data-name="Grupo 6906">
              <path id="Trazado_15242" data-name="Trazado 15242" d="M550.52,80.724s-30.148-24.862-59.268-7.5c-39.013,23.258-33.011,72.773-15.755,82.526S550.52,80.724,550.52,80.724Z" transform="translate(-460.292 -66.995)" fill="#765e69"/>
              <path id="Trazado_15243" data-name="Trazado 15243" d="M546.165,79.979c-29.175-26.84-80.463-9.427-85.727,28.213" transform="translate(-460.438 -67)" fill="none" stroke="#765e69" stroke-miterlimit="10" stroke-width="2.127"/>
            </g>
            <line id="Línea_67" data-name="Línea 67" x2="18.006" transform="translate(5.452 79.75)" fill="none" stroke="#352c38" stroke-linecap="round" stroke-linejoin="round" stroke-width="2.07"/>
          </g>
          <g id="Grupo_6908" data-name="Grupo 6908" transform="translate(2.818 99.216)">
            <path id="Trazado_15244" data-name="Trazado 15244" d="M505.527,289.705c8.792.327,20.3,2.334,32.652,4.627,27.293-10.71,54.466-21.691,80.9-34.375-6.421-19.763-22.467-34.158-39.089-37.222-23.333-4.3-9.959-64.485-9.959-64.485l-48.664,18.94s8.982,21.135,1.109,37.3-43.738.4-55.549,29.343S470.741,288.412,505.527,289.705Z" transform="translate(-463.029 -158.249)" fill="#ffac9d"/>
            <path id="Trazado_15245" data-name="Trazado 15245" d="M517.54,215.33c14.336-1.377,27.612-6.909,43.524-25.116.553-14.059,5.776-31.893,5.776-31.893l-47.664,23.268S524.14,198.91,517.54,215.33Z" transform="translate(-458.27 -158.243)" fill="#ba7b75" opacity="0.5"/>
          </g>
          <g id="Grupo_6909" data-name="Grupo 6909" transform="translate(16.297 25.555)">
            <path id="Trazado_15246" data-name="Trazado 15246" d="M531.352,91.432s-47.444-11.76-55.057,48.451c-7.569,59.858,35.651,88.469,78.819,58.251C590.779,173.167,594.117,91.957,531.352,91.432Z" transform="translate(-475.426 -90.504)" fill="#ffac9d"/>
            <path id="Trazado_15247" data-name="Trazado 15247" d="M568.953,136.287s-1.107,20-8.663,30.066c0,0,19.835,2.318,22.587-11.7S579.837,134.906,568.953,136.287Z" transform="translate(-468.017 -86.524)" fill="#ffac9d"/>
          </g>
          <g id="Grupo_6911" data-name="Grupo 6911" transform="translate(69.618 2.727)">
            <path id="Trazado_15248" data-name="Trazado 15248" d="M570.331,97.766s14.862-38.726,36.011-25.508c36.012,22.507,22.507,54.767-4.5,51.016S570.331,97.766,570.331,97.766Z" transform="translate(-520.461 -69.508)" fill="#765e69"/>
            <g id="Grupo_6910" data-name="Grupo 6910" transform="translate(0 2.485)">
              <path id="Trazado_15249" data-name="Trazado 15249" d="M600.58,111.82s-14.255-36.011-38.261-39.762-72.022,33.01,1.5,67.521c0,0-8.253,9.753-2.251,42.013,0,0,6-40.512,17.256-38.261s10.417,24.8-6.752,27.759c0,0-1.508,5-10.848,19.005C561.224,190.095,627.589,188.344,600.58,111.82Z" transform="translate(-524.453 -71.793)" fill="#765e69"/>
              <path id="Trazado_15250" data-name="Trazado 15250" d="M527.07,91.357s-15,21.006,27.009,47.264" transform="translate(-524.466 -70.085)" fill="none" stroke="#765e69" stroke-miterlimit="10" stroke-width="2.07"/>
            </g>
          </g>
        </g>
        <g id="Grupo_6915" data-name="Grupo 6915" transform="translate(0 56.245)">
          <g id="Grupo_6913" data-name="Grupo 6913" transform="translate(19.796 0.263)">
            <path id="Trazado_15251" data-name="Trazado 15251" d="M535.51,142.376c-.287,4.115-1.813,7.361-3.405,7.25s-2.651-3.538-2.364-7.654,1.814-7.361,3.406-7.25S535.8,138.26,535.51,142.376Z" transform="translate(-474.14 -117.596)" fill="#352c38"/>
            <path id="Trazado_15252" data-name="Trazado 15252" d="M495.306,139.12c-.287,4.114-1.811,7.361-3.405,7.249s-2.651-3.537-2.363-7.652,1.813-7.362,3.405-7.25S495.594,135,495.306,139.12Z" transform="translate(-477.65 -117.88)" fill="#352c38"/>
            <path id="Trazado_15253" data-name="Trazado 15253" d="M499.8,133.339l-1.916,25.625,9.005,1.835" transform="translate(-476.918 -117.717)" fill="none" stroke="#c47776" stroke-miterlimit="10" stroke-width="1.756"/>
            <path id="Trazado_15254" data-name="Trazado 15254" d="M478.6,123.275s12.893-11.658,21.019,3.4" transform="translate(-478.601 -118.971)" fill="none" stroke="#352c38" stroke-miterlimit="10" stroke-width="3.546"/>
            <path id="Trazado_15255" data-name="Trazado 15255" d="M517.952,126.152s13.161-15.5,28.229,3.908" transform="translate(-475.165 -118.856)" fill="none" stroke="#352c38" stroke-miterlimit="10" stroke-width="3.546"/>
            <path id="Trazado_15256" data-name="Trazado 15256" d="M568.642,160.952s5.679-3.97-2.054-7.193c0,0,6.945-24.677,12-8.443" transform="translate(-470.919 -117.154)" fill="none" stroke="#c47776" stroke-miterlimit="10" stroke-width="1.931"/>
            <path id="Trazado_15257" data-name="Trazado 15257" d="M524.709,172.086s-12.753,10.5-24.757,1.5" transform="translate(-476.737 -114.334)" fill="none" stroke="#c47776" stroke-miterlimit="10" stroke-width="2.07"/>
          </g>
          <g id="Grupo_6914" data-name="Grupo 6914">
            <circle id="Elipse_701" data-name="Elipse 701" cx="18.006" cy="18.006" r="18.006" transform="translate(55.765 8.5)" stroke-width="2.07" stroke="#352c38" stroke-linecap="round" stroke-linejoin="round" fill="none"/>
            <circle id="Elipse_702" data-name="Elipse 702" cx="18.006" cy="18.006" r="18.006" transform="matrix(0.925, -0.381, 0.381, 0.925, 0, 13.71)" stroke-width="2.07" stroke="#352c38" stroke-linecap="round" stroke-linejoin="round" fill="none"/>
            <line id="Línea_68" data-name="Línea 68" x1="21.006" y2="2.251" transform="translate(91.776 24.255)" fill="none" stroke="#352c38" stroke-linecap="round" stroke-linejoin="round" stroke-width="2.07"/>
            <path id="Trazado_15258" data-name="Trazado 15258" d="M512.887,143.419s-6-10.5-15,3" transform="translate(-457.122 -116.913)" fill="none" stroke="#352c38" stroke-linecap="round" stroke-linejoin="round" stroke-width="2.07"/>
          </g>
        </g>
      </g>
      <g id="Grupo_6920" data-name="Grupo 6920" transform="translate(0 155.819)">
        <g id="Grupo_6917" data-name="Grupo 6917" transform="translate(0 91.738)">
          <path id="Trazado_15259" data-name="Trazado 15259" d="M397.167,312.855s-14.594-38.675-6.481-3.2c0,0-54.815-23.8-15.766-.8,0,0-52.183-22.275-1.439,4.385,0,0-50.015-17.174-4.043,5.447,0,0-46.7-14.594,25.019,16.489C433.984,352.311,397.167,312.855,397.167,312.855Z" transform="translate(-350.004 -294.678)" fill="#ffa292"/>
          <path id="Trazado_15260" data-name="Trazado 15260" d="M393.082,310.959a2.184,2.184,0,0,0,.182-.551l57.76,16.76,3.215,2.79s7.613,26.014.318,31.866c-5.674,4.552-49.37-18.789-70.61-33.848C386.673,322.146,389.911,316.561,393.082,310.959Z" transform="translate(-347.041 -293.305)" fill="#ffa292"/>
          <path id="Trazado_15261" data-name="Trazado 15261" d="M416.27,317.015l33,9.576,3.215,2.79s7.613,26.014.318,31.867c-4.086,3.277-27.886-7.909-48.82-20.05Q409.84,328.966,416.27,317.015Z" transform="translate(-345.291 -292.728)" fill="#ba7b75" opacity="0.5"/>
        </g>
        <g id="Grupo_6919" data-name="Grupo 6919" transform="translate(66.718)">
          <path id="Trazado_15262" data-name="Trazado 15262" d="M591.2,218.15c-4.233,8.8-23.346,27.4-49.44,23.671-27.274-3.9-25.117-21.4-25.668-28.045-3.873-.112-7.991-.155-8.437-.15C447.41,214.258,450.944,292,450.944,292L446.7,328.046,421.967,323.1l-10.6,36.045,60.075,21.2,119.7-90.646L635.41,257.37C630.463,225.566,608.864,224.361,591.2,218.15Z" transform="translate(-411.365 -210.017)" fill="#6f96bd"/>
          <g id="Grupo_6918" data-name="Grupo 6918" transform="translate(93.293)">
            <path id="Trazado_15263" data-name="Trazado 15263" d="M582.984,218.674l-28.271,39.579L534.217,242l35.338-30.391Z" transform="translate(-493.932 -210.193)" fill="#80b0d8"/>
            <path id="Trazado_15264" data-name="Trazado 15264" d="M509.182,210.307l16.962,28.977-14.135,14.842-14.842-41.7Z" transform="translate(-497.167 -210.307)" fill="#80b0d8"/>
          </g>
        </g>
      </g>
      <g id="Grupo_6926" data-name="Grupo 6926" transform="translate(75.683 285.115)">
        <g id="Grupo_6924" data-name="Grupo 6924" transform="translate(55.181 134.381)">
          <g id="Grupo_6923" data-name="Grupo 6923">
            <g id="Grupo_6922" data-name="Grupo 6922">
              <g id="Grupo_6921" data-name="Grupo 6921">
                <path id="Trazado_15265" data-name="Trazado 15265" d="M471.012,455.5h-.652c.435-1.566.707-2.468.783-2.686C471.132,453.038,471.078,453.963,471.012,455.5Z" transform="translate(-470.36 -452.81)" fill="#765e69"/>
              </g>
              <path id="Trazado_15266" data-name="Trazado 15266" d="M471.012,455.5h-.652c.435-1.566.707-2.468.783-2.686C471.132,453.038,471.078,453.963,471.012,455.5Z" transform="translate(-470.36 -452.81)" fill="#252028" opacity="0.4"/>
            </g>
          </g>
        </g>
        <g id="Grupo_6925" data-name="Grupo 6925" transform="translate(0 0)">
          <path id="Trazado_15267" data-name="Trazado 15267" d="M623.927,435.048c-.13-1.044-.261-2.077-.4-3.1-.272-2.022-.565-4-.87-5.958,0-.022-.011-.054-.011-.087-.3-1.827-.609-3.632-.924-5.4q-1.419-7.763-3.153-14.8c-.348-1.424-.707-2.827-1.077-4.2a1.973,1.973,0,0,0-.076-.272c-.217-.837-.446-1.674-.674-2.49s-.468-1.642-.7-2.446q-.44-1.5-.881-2.968-.277-.9-.555-1.761c-1.229-3.947-2.523-7.666-3.849-11.167-.739-1.968-1.479-3.86-2.24-5.687a183.794,183.794,0,0,0-7.807-16.668c-7.47-13.994-13.668-20.887-13.668-20.887-.13.022-.261.044-.391.054-32.913,4.382-57.2,3.784-74.372,1.566-20.267-2.61-30.63-7.481-33.565-9.046-.6-.326-.892-.511-.892-.511-1.3,1.555-2.6,3.121-3.849,4.708a236.2,236.2,0,0,0-20.463,30.249c-18.593,32.641-28.814,68.055-33.9,102.109h207.1C626.069,455.522,625.156,445.019,623.927,435.048Z" transform="translate(-419.61 -329.22)" fill="#352c38"/>
          <path id="Trazado_15268" data-name="Trazado 15268" d="M612.8,461.28H578.93c3.947-10.493,7.437-21.148,10.612-31.9,4.186-14.135,7.818-28.444,11.156-42.818q.277.864.555,1.761.44,1.468.881,2.968c.228.8.467,1.62.7,2.446s.457,1.653.674,2.49a1.983,1.983,0,0,1,.076.272c.37,1.37.729,2.773,1.076,4.2q1.729,7.03,3.153,14.8c.315,1.772.62,3.577.924,5.4,0,.033.011.065.011.087.3,1.957.6,3.936.87,5.958.141,1.022.272,2.055.4,3.1C611.245,440.012,612.158,450.516,612.8,461.28Z" transform="translate(-405.699 -324.214)" fill="#252028"/>
        </g>
      </g>
      <g id="Grupo_6931" data-name="Grupo 6931" transform="translate(122.783 185.599)">
        <g id="Grupo_6927" data-name="Grupo 6927" transform="translate(0.946 24.826)">
          <path id="Trazado_15269" data-name="Trazado 15269" d="M472.951,260.527s-21.13,21.391.819,52.1l1.509,32.074s24.455,11.058,107.909-1.553L602,265.611Z" transform="translate(-463.798 -260.527)" fill="#6f96bd"/>
          <path id="Trazado_15270" data-name="Trazado 15270" d="M476.122,304.256c14.844,5.2,29.9,7.519,45.57,4.645a311.689,311.689,0,0,0,54.027-15.247c7.392-2.834,15.073-6.092,20.783-11.238.275-.248.537-.5.808-.756L582.841,341.3c-83.454,12.611-107.909,1.553-107.909,1.553l-1.509-32.074a61.03,61.03,0,0,1-5.654-9.591C470.607,302.3,473.43,303.314,476.122,304.256Z" transform="translate(-463.451 -258.682)" fill="#352c38" opacity="0.2"/>
        </g>
        <g id="Grupo_6930" data-name="Grupo 6930" transform="translate(0)">
          <g id="Grupo_6928" data-name="Grupo 6928" transform="translate(0 22.945)">
            <rect id="Rectángulo_1456" data-name="Rectángulo 1456" width="118.552" height="170.326" transform="matrix(0.796, -0.605, 0.605, 0.796, 0, 71.724)" fill="#ba7b75"/>
            <line id="Línea_69" data-name="Línea 69" x1="74.662" y2="1.914" transform="translate(46.814 32.943)" fill="none" stroke="#fff" stroke-linecap="round" stroke-linejoin="round" stroke-width="1.95"/>
            <line id="Línea_70" data-name="Línea 70" x1="6.7" y2="67.004" transform="translate(162.635 97.075)" fill="none" stroke="#fff" stroke-linecap="round" stroke-linejoin="round" stroke-width="1.95"/>
          </g>
          <g id="Grupo_6929" data-name="Grupo 6929" transform="translate(35.618)">
            <path id="Trazado_15271" data-name="Trazado 15271" d="M520.582,368.037a2.2,2.2,0,0,0-.182-.55l56.365-20.975,4.245.323s21.62,16.348,19.251,25.4c-1.842,7.037-50.839,14.345-76.87,14.916C522.1,380.841,521.375,374.425,520.582,368.037Z" transform="translate(-493.528 -228.194)" fill="#ffa292"/>
            <path id="Trazado_15272" data-name="Trazado 15272" d="M558.14,352.216l15.33-5.7,4.245.323s21.62,16.348,19.251,25.4c-.906,3.461-13.223,6.985-28.6,9.742C565.057,372.042,561.124,362.274,558.14,352.216Z" transform="translate(-490.232 -228.194)" fill="#ba7b75" opacity="0.5"/>
            <path id="Trazado_15273" data-name="Trazado 15273" d="M574.541,279.356l-.451,69.559-10.855,7.833,13.6,37.9s26.424-3.292,34.63-17.222,22.108-120.31,2.979-139.734Z" transform="translate(-489.788 -237.695)" fill="#6f96bd"/>
            <path id="Trazado_15274" data-name="Trazado 15274" d="M522.558,366.864s-35.156-30.547-6.886,1.257c0,0-34.631,8.481-12.721,8.481,0,0-14.135,3.534,1.414,4.24,0,0-9.188,4.948,0,4.241,0,0-12.015,8.482,28.977.708S522.558,366.864,522.558,366.864Z" transform="translate(-495.685 -227.57)" fill="#ffa292"/>
          </g>
        </g>
      </g>
    </g>
  </g>
</svg>
