<svg xmlns="http://www.w3.org/2000/svg" width="73.821" height="73.778" viewBox="0 0 73.821 73.778">
  <g id="Grupo_7416" data-name="Grupo 7416" transform="translate(-1384.933 -836.797)">
    <path id="Trazado_18475" data-name="Trazado 18475" d="M1420.65,901.967V899.5h.937l30.523,0c2.725,0,4.179-1.45,4.179-4.169q0-20.835,0-41.671v-.865H1387.4v.889q0,20.912.013,41.824a16.713,16.713,0,0,0,.315,2.238l-1.948,1.132a5.853,5.853,0,0,1-.848-3.154q0-14.031,0-28.062,0-10.264,0-20.528c0-4.156,2.54-6.681,6.718-6.682h4.312v-3.637h2.475v3.575h9.856V836.8h2.445v3.6h9.854v-3.589h2.445v3.574h9.853V836.8h2.445v3.6h9.851v-3.583h2.471v3.634h4.442c4.109,0,6.647,2.549,6.648,6.675q0,24.1,0,48.206c0,4.06-2.566,6.632-6.615,6.633q-15.3,0-30.6,0Zm24.564-59h-9.851v3.592h-2.47v-3.609h-9.826v3.6H1420.6V842.96h-9.853v3.6h-2.448v-3.59h-9.852v3.575h-2.451v-3.637c-1.488,0-2.916,0-4.344,0a7.658,7.658,0,0,0-1.074.037,3.593,3.593,0,0,0-3.12,3.146c-.118,1.366-.024,2.75-.024,4.153h68.863c0-1.243.016-2.442,0-3.641a3.5,3.5,0,0,0-3.048-3.594c-1.817-.176-3.665-.039-5.582-.039v3.564h-2.444Z" transform="translate(0)" fill="#cb4f29"/>
    <path id="Trazado_18476" data-name="Trazado 18476" d="M1404.123,991.372c.069-1.329.036-2.618.219-3.876a8.573,8.573,0,0,1,16.922.056c.177,1.234.148,2.5.217,3.8.229.046.5.092.761.156a3.674,3.674,0,0,1-.525,7.246.884.884,0,0,0-.909.693,8.8,8.8,0,0,1-2.641,3.622,1.384,1.384,0,0,0-.424.88c-.057.866-.02,1.739-.02,2.637,1.187.53,2.36,1.035,3.517,1.575a12.215,12.215,0,0,1,7.553,11.728q.021,1.652,0,3.305a1.252,1.252,0,0,1-1.419,1.42q-14.567.009-29.134,0c-.831,0-1.407-.4-1.407-1.1,0-2.325-.255-4.672.348-6.962a12.227,12.227,0,0,1,7.1-8.361c1.048-.477,2.115-.911,3.149-1.416.208-.1.311-.43.447-.663.033-.057,0-.152.006-.228a3.864,3.864,0,0,0-1.385-3.82c-.82-.663-1.2-1.863-1.8-2.805a.984.984,0,0,0-.556-.459,3.742,3.742,0,0,1-3.635-3.651C1400.476,993.145,1401.855,991.7,1404.123,991.372Zm.488,19.53c-3.572,1.131-6.373,7.193-5.221,11.217h26.869c.666-5.652-1.707-9.647-5.261-11.195-.26,1.255-.512,2.508-.781,3.757-.3,1.4-1.205,1.72-2.331.826-.954-.757-1.9-1.524-2.9-2.331a14.485,14.485,0,0,1-1.025,1.975,1.8,1.8,0,0,1-1.166.787,1.824,1.824,0,0,1-1.155-.806,14.61,14.61,0,0,1-1.012-1.953c-1.054.844-2.04,1.652-3.046,2.433a1.246,1.246,0,0,1-2.169-.8C1405.126,1013.512,1404.876,1012.207,1404.611,1010.9Zm14.21-19.411a8,8,0,0,0-4.65.68,14.31,14.31,0,0,1-7.51,1.635c0,1.009-.04,1.953.007,2.891a6.165,6.165,0,0,0,5.676,5.764,5.97,5.97,0,0,0,6.428-4.943A46.59,46.59,0,0,0,1418.822,991.491Zm.114-2.488c0-.246.012-.419,0-.591a6.159,6.159,0,0,0-11.043-3.175c-1.392,1.818-1.306,3.9-1.2,5.992a7.476,7.476,0,0,0,4.818-.614A13.953,13.953,0,0,1,1418.935,989Zm-6.135,23.012c.664-1.321,1.163-2.505,1.829-3.587a5.833,5.833,0,0,0,.6-3.636h-4.852a6.606,6.606,0,0,0,.047,2.348C1411.056,1008.766,1411.941,1010.292,1412.8,1012.016Zm4.27-3c-.288.571-.572,1.082-.8,1.616a.561.561,0,0,0,.133.5c.533.468,1.1.9,1.726,1.4.181-.867.361-1.629.484-2.4a.648.648,0,0,0-.246-.538A12.025,12.025,0,0,0,1417.07,1009.013Zm-8.609.036a13.522,13.522,0,0,0-1.251.551.575.575,0,0,0-.229.478c.133.787.314,1.567.483,2.375,2.118-1.309,2.17-1.465,1.135-3.282A1.068,1.068,0,0,0,1408.461,1009.048Zm-4.3-15.206c-.77.181-1.2.569-1.179,1.279a1.151,1.151,0,0,0,1.179,1.181Zm17.3.019v2.467c.732-.148,1.162-.53,1.167-1.231S1422.21,994,1421.456,993.861Z" transform="translate(-9.411 -114.047)" fill="#cb4f29"/>
    <path id="Trazado_18477" data-name="Trazado 18477" d="M1605.43,948.225c-1.151,0-2.3.008-3.453,0-1.012-.009-1.467-.448-1.47-1.442q-.013-3.492,0-6.984a1.247,1.247,0,0,1,1.422-1.411q3.492-.018,6.984,0a1.249,1.249,0,0,1,1.428,1.4q.018,3.53,0,7.06a1.237,1.237,0,0,1-1.384,1.373C1607.783,948.237,1606.606,948.225,1605.43,948.225Zm2.424-7.328h-4.823v4.827h4.823Z" transform="translate(-171.28 -80.711)" fill="#cb4f29"/>
    <path id="Trazado_18478" data-name="Trazado 18478" d="M1665.331,948.235c-1.151,0-2.3.006-3.454,0-1.015-.007-1.471-.442-1.475-1.435q-.015-3.492,0-6.984a1.246,1.246,0,0,1,1.412-1.42q3.53-.017,7.061,0a1.227,1.227,0,0,1,1.364,1.389q.016,3.53,0,7.061a1.237,1.237,0,0,1-1.374,1.383c-1.177.017-2.354,0-3.531,0Zm-2.438-2.519h4.823v-4.824h-4.823Z" transform="translate(-218.869 -80.716)" fill="#cb4f29"/>
    <path id="Trazado_18479" data-name="Trazado 18479" d="M1545.5,1014.095c-1.153,0-2.307.011-3.46,0a1.258,1.258,0,0,1-1.415-1.426q-.014-3.5,0-7a1.247,1.247,0,0,1,1.425-1.412q3.5-.017,7,0a1.255,1.255,0,0,1,1.412,1.428q.016,3.5,0,7a1.253,1.253,0,0,1-1.427,1.413C1547.856,1014.1,1546.677,1014.095,1545.5,1014.095Zm2.474-7.326h-4.826v4.824h4.826Z" transform="translate(-123.699 -133.048)" fill="#cb4f29"/>
    <path id="Trazado_18480" data-name="Trazado 18480" d="M1600.5,1009.1c0-1.151-.011-2.3,0-3.454a1.233,1.233,0,0,1,1.369-1.385q3.53-.023,7.061,0a1.246,1.246,0,0,1,1.4,1.428q.016,3.492,0,6.984a1.25,1.25,0,0,1-1.409,1.426q-3.53.018-7.061,0a1.232,1.232,0,0,1-1.369-1.386c-.015-1.2,0-2.4,0-3.607Zm2.525-2.365v4.851h4.8v-4.851Z" transform="translate(-171.275 -133.046)" fill="#cb4f29"/>
    <path id="Trazado_18481" data-name="Trazado 18481" d="M1545.542,948.226c-1.153,0-2.307.009-3.46,0-1-.01-1.454-.459-1.458-1.462q-.013-3.46,0-6.92c0-1,.453-1.451,1.46-1.455q3.46-.015,6.92,0c1,0,1.452.46,1.456,1.463q.014,3.46,0,6.92c0,1-.456,1.447-1.461,1.457C1547.849,948.234,1546.7,948.226,1545.542,948.226Zm2.4-2.477V940.9h-4.8v4.853Z" transform="translate(-123.7 -80.711)" fill="#cb4f29"/>
    <path id="Trazado_18482" data-name="Trazado 18482" d="M1550.467,1075.048c0,1.153.009,2.307,0,3.46-.01,1-.456,1.454-1.461,1.458q-3.46.014-6.92,0a1.271,1.271,0,0,1-1.459-1.459q-.011-3.46,0-6.92c0-1.005.452-1.452,1.459-1.456q3.46-.015,6.92,0c1,0,1.448.458,1.457,1.462C1550.476,1072.741,1550.467,1073.895,1550.467,1075.048Zm-2.525,2.444v-4.853h-4.8v4.853Z" transform="translate(-123.701 -185.388)" fill="#cb4f29"/>
    <path id="Trazado_18483" data-name="Trazado 18483" d="M1610.35,1075.121c0,1.126.008,2.251,0,3.377-.01,1.005-.453,1.46-1.45,1.464q-3.492.014-6.984,0a1.244,1.244,0,0,1-1.405-1.427q-.013-3.492,0-6.984a1.247,1.247,0,0,1,1.41-1.423q3.53-.018,7.061,0a1.233,1.233,0,0,1,1.364,1.39C1610.361,1072.716,1610.35,1073.919,1610.35,1075.121Zm-2.524,2.353v-4.851h-4.808v4.851Z" transform="translate(-171.281 -185.385)" fill="#cb4f29"/>
    <path id="Trazado_18484" data-name="Trazado 18484" d="M1665.242,1079.98c-1.126,0-2.251.008-3.377,0-1.007-.009-1.46-.45-1.464-1.448q-.015-3.492,0-6.984a1.246,1.246,0,0,1,1.424-1.409q3.492-.016,6.984,0a1.247,1.247,0,0,1,1.43,1.4q.016,3.53,0,7.061a1.237,1.237,0,0,1-1.386,1.371c-1.2.016-2.4,0-3.607,0Zm2.48-2.5v-4.823h-4.82v4.823Z" transform="translate(-218.868 -185.395)" fill="#cb4f29"/>
    <path id="Trazado_18485" data-name="Trazado 18485" d="M1660.4,1009.106c0-1.151-.012-2.3,0-3.454a1.234,1.234,0,0,1,1.365-1.389q3.569-.021,7.138,0a1.211,1.211,0,0,1,1.333,1.341q.021,3.569,0,7.137a1.217,1.217,0,0,1-1.326,1.351q-3.607.026-7.214,0a1.2,1.2,0,0,1-1.288-1.306C1660.384,1011.562,1660.4,1010.334,1660.4,1009.106Zm7.316,2.515v-4.851h-4.8v4.851Z" transform="translate(-218.869 -133.053)" fill="#cb4f29"/>
    <path id="Trazado_18486" data-name="Trazado 18486" d="M1485.76,948.236V945.8h2.368v-4.9H1483.3v3.582h-2.464c0-1.692-.045-3.4.024-5.1a1.077,1.077,0,0,1,1.187-.986c2.458-.013,4.917-.019,7.375,0a1.159,1.159,0,0,1,1.219,1.218q.036,3.688,0,7.375a1.171,1.171,0,0,1-1.21,1.229C1488.232,948.258,1487.031,948.236,1485.76,948.236Z" transform="translate(-76.185 -80.721)" fill="#cb4f29"/>
    <path id="Trazado_18487" data-name="Trazado 18487" d="M1430.708,944.508h-2.445v-3.621h-4.875v4.87h2.363V948.2c-1.289,0-2.585.052-3.874-.023a1.081,1.081,0,0,1-1-1.177c-.015-2.458-.02-4.916,0-7.373a1.176,1.176,0,0,1,1.279-1.237q3.649-.026,7.3,0a1.182,1.182,0,0,1,1.246,1.271C1430.725,941.253,1430.708,942.838,1430.708,944.508Z" transform="translate(-28.55 -80.714)" fill="#cb4f29"/>
  </g>
</svg>
