<?xml version="1.0" encoding="utf-8"?>
<!-- Generator: Adobe Illustrator 24.1.2, SVG Export Plug-In . SVG Version: 6.00 Build 0)  -->
<svg version="1.1" id="Capa_1" xmlns="http://www.w3.org/2000/svg" xmlns:xlink="http://www.w3.org/1999/xlink" x="0px" y="0px"
	 viewBox="0 0 824.2 620" style="enable-background:new 0 0 824.2 620;" xml:space="preserve">
<style type="text/css">
	.st0{fill:#565656;}
	.st1{fill:none;stroke:#C94F29;stroke-width:1.1587;stroke-miterlimit:10;}
	.st2{fill:#C94F29;}
	.st3{fill:none;}
	.st4{fill:#FFFFFF;}
	.st5{font-family:'OpenSans';}
	.st6{font-size:4.1072px;}
	.st7{fill:#E06C19;}
	.st8{font-family:'OpenSans-Bold';}
	.st9{font-size:8.2144px;}
	.st10{fill:#FFFFFF;stroke:#565656;stroke-width:0.48;stroke-miterlimit:10;}
	.st11{font-family:'ArialMT';}
	.st12{font-size:5.4763px;}
	.st13{fill-rule:evenodd;clip-rule:evenodd;fill:#C94F29;}
	.st14{fill-rule:evenodd;clip-rule:evenodd;fill:#FFC800;}
	.st15{fill-rule:evenodd;clip-rule:evenodd;fill:#E06C19;}
	.st16{fill-rule:evenodd;clip-rule:evenodd;fill:#E08C19;}
	.st17{fill-rule:evenodd;clip-rule:evenodd;fill:#F2F2F2;}
	.st18{fill-rule:evenodd;clip-rule:evenodd;fill:#F1F1F1;}
	.st19{fill-rule:evenodd;clip-rule:evenodd;fill:#F0F0F0;}
	.st20{fill-rule:evenodd;clip-rule:evenodd;fill:#EFEFEF;}
	.st21{fill-rule:evenodd;clip-rule:evenodd;fill:#EEEEEE;}
	.st22{fill-rule:evenodd;clip-rule:evenodd;fill:#EDEDED;}
	.st23{fill-rule:evenodd;clip-rule:evenodd;fill:#ECECEC;}
	.st24{fill-rule:evenodd;clip-rule:evenodd;fill:#EBEBEB;}
	.st25{fill-rule:evenodd;clip-rule:evenodd;fill:#EAEAEA;}
	.st26{fill-rule:evenodd;clip-rule:evenodd;fill:#E9E9E9;}
	.st27{fill-rule:evenodd;clip-rule:evenodd;fill:#E8E8E8;}
	.st28{fill-rule:evenodd;clip-rule:evenodd;fill:#E7E7E7;}
	.st29{fill-rule:evenodd;clip-rule:evenodd;fill:#E6E6E6;}
	.st30{fill-rule:evenodd;clip-rule:evenodd;fill:#E5E5E5;}
	.st31{fill-rule:evenodd;clip-rule:evenodd;fill:#E4E4E4;}
	.st32{fill-rule:evenodd;clip-rule:evenodd;fill:#E3E3E3;}
	.st33{fill-rule:evenodd;clip-rule:evenodd;fill:#E2E2E2;}
	.st34{fill-rule:evenodd;clip-rule:evenodd;fill:#E1E1E1;}
	.st35{fill-rule:evenodd;clip-rule:evenodd;fill:#E0E0E0;}
	.st36{fill-rule:evenodd;clip-rule:evenodd;fill:#DFDFDF;}
	.st37{fill-rule:evenodd;clip-rule:evenodd;fill:#DEDEDE;}
	.st38{fill-rule:evenodd;clip-rule:evenodd;fill:#DDDDDD;}
	.st39{fill-rule:evenodd;clip-rule:evenodd;fill:#DCDCDC;}
	.st40{fill-rule:evenodd;clip-rule:evenodd;fill:#DBDBDB;}
	.st41{fill-rule:evenodd;clip-rule:evenodd;fill:#DADADA;}
	.st42{fill-rule:evenodd;clip-rule:evenodd;fill:#D9D9D9;}
	.st43{fill:#787878;}
	.st44{font-family:'Montserrat-Bold';}
	.st45{font-size:8px;}
	.st46{font-size:10px;}
	.st47{enable-background:new    ;}
	.st48{fill:#3C3C3C;}
	.st49{font-size:12.4103px;}
</style>
<g>
	<polygon class="st0" points="656.2,604.2 656.2,610.5 656.2,611 656.2,617.3 652.9,620 580.4,620 580.4,615.4 580.4,613.7 
		580.4,610.5 580.4,609.1 580.4,604.2 	"/>
	<polyline class="st1" points="577.8,423.8 660.5,423.8 660.5,558.7 	"/>
	<polyline class="st1" points="517,386.5 517,368.6 446,368.6 446,286.8 360.2,286.8 	"/>
	<polyline class="st1" points="279.8,286.8 362.5,286.8 362.5,368.6 	"/>
	<polygon class="st0" points="220.5,355.2 144.8,355.2 144.8,385.7 217.2,385.7 220.5,383 	"/>
	<polygon class="st0" points="52.4,355.2 52.4,378.4 125,378.4 128.2,375.8 128.2,355.2 	"/>
	<polygon class="st0" points="325.8,322.4 325.8,338.2 398.3,338.2 401.6,335.5 401.6,322.4 	"/>
	<polygon class="st0" points="527,437 527,460.3 599.6,460.3 602.8,457.6 602.8,437 	"/>
	<polygon class="st0" points="622.8,481.3 622.8,504.5 695.3,504.5 698.6,501.9 698.6,481.3 	"/>
	<line class="st1" x1="136.5" y1="236.7" x2="136.5" y2="335.3"/>
	<polyline class="st1" points="90.6,4.2 90.6,162.7 115.1,187.2 	"/>
	<line class="st1" x1="172.1" y1="128.1" x2="172.1" y2="61.1"/>
	<rect x="100.1" y="165.5" class="st2" width="71.2" height="71.2"/>
	<polyline class="st1" points="172.1,137.5 157.8,151.8 157.8,163.9 138.7,183 	"/>
	<polygon class="st0" points="208.4,134.9 205.2,137.5 135.7,137.5 135.7,133 135.7,128.1 208.4,128.1 	"/>
	<rect x="143" y="131.1" class="st3" width="58.2" height="4.4"/>
	<text transform="matrix(1.0229 0 0 1 142.981 134.2344)" class="st4 st5 st6">Un procedimiento</text>
	<polygon class="st0" points="175.6,265.2 172.4,267.9 100.1,267.9 100.1,263.3 100.1,258.4 175.6,258.4 	"/>
	<rect x="107.4" y="261.5" class="st3" width="58.2" height="4.4"/>
	<text transform="matrix(1.0229 0 0 1 107.3833 264.5889)" class="st4 st5 st6">Responsabilidad</text>
	<polygon class="st0" points="54.2,134.9 57.4,137.5 127,137.5 127,133 127,128.1 54.2,128.1 	"/>
	<polygon class="st0" points="54.2,92.1 54.2,98.4 54.2,98.9 54.2,105.2 57.4,107.9 127,107.9 127,103.3 127,101.6 127,98.4 127,97 
		127,92.1 	"/>
	<polygon class="st0" points="208.4,87.3 208.4,93.7 208.4,94.2 208.4,100.5 205.2,103.1 135.7,103.1 135.7,98.6 135.7,96.8 
		135.7,93.7 135.7,92.3 135.7,87.3 	"/>
	<rect x="61.5" y="131.1" class="st3" width="58.2" height="4.4"/>
	<text transform="matrix(1.0229 0 0 1 61.4868 134.2344)" class="st4 st5 st6">Conpes 81</text>
	<polygon class="st0" points="127,0 127,23.3 57.4,23.3 54.2,20.6 54.2,0 	"/>
	<polygon class="st0" points="127,46 127,69.3 57.4,69.3 54.2,66.6 54.2,46 	"/>
	<rect x="143" y="91.3" class="st3" width="58.2" height="9.6"/>
	<text transform="matrix(1.0229 0 0 1 142.981 94.3887)" class="st4 st5 st6">Actualizar o elaborar </text>
	<text transform="matrix(1.0229 0 0 1 142.981 99.2891)" class="st4 st5 st6">Programas de formación</text>
	<rect x="61.5" y="49.4" class="st3" width="58.2" height="14.3"/>
	<text transform="matrix(1.0229 0 0 1 61.4868 52.501)" class="st4 st5 st6">Transferencia </text>
	<text transform="matrix(1.0229 0 0 1 61.4868 57.4014)" class="st4 st5 st6">tecnológica, pedagógica </text>
	<text transform="matrix(1.0229 0 0 1 61.4868 62.4014)" class="st4 st5 st6">y didáctica</text>
	<rect x="61.5" y="3.6" class="st3" width="58.2" height="16"/>
	<text transform="matrix(1.0229 0 0 1 61.4868 6.7705)" class="st4 st5 st6">Con programas </text>
	<text transform="matrix(1.0229 0 0 1 61.4868 11.6709)" class="st4 st5 st6">pertinentes, flexibles y </text>
	<text transform="matrix(1.0229 0 0 1 61.4868 16.6709)" class="st4 st5 st6">de calidad</text>
	<rect x="61.5" y="95.7" class="st3" width="58.2" height="10.5"/>
	<text transform="matrix(1.0229 0 0 1 61.4868 98.8457)" class="st4 st5 st6">El Estado otorga al SENA </text>
	<text transform="matrix(1.0229 0 0 1 61.4868 103.7456)" class="st4 st5 st6">a partir del SNFT</text>
	<polygon class="st0" points="135.7,36 135.7,64.4 205.2,64.4 208.4,61.8 208.4,36 	"/>
	<rect x="143" y="39.3" class="st3" width="58.2" height="21.7"/>
	<text transform="matrix(1.0229 0 0 1 142.981 42.4512)" class="st4 st5 st6">Respuesta a las </text>
	<text transform="matrix(1.0229 0 0 1 142.981 47.3516)" class="st4 st5 st6">necesidades</text>
	<text transform="matrix(1.0229 0 0 1 142.981 52.3516)" class="st4 st5 st6">Del sector productivo y </text>
	<text transform="matrix(1.0229 0 0 1 142.981 57.2515)" class="st4 st5 st6">social</text>
	<polyline class="st1" points="166.3,189.5 193.5,189.5 240.5,236.6 240.5,257.5 	"/>
	<polyline class="st1" points="108.8,214.7 85.2,238.3 36.4,238.3 36.4,294.1 	"/>
	<rect x="135.7" y="165.5" class="st7" width="35.6" height="71.2"/>
	<rect x="107.9" y="192.4" class="st3" width="55.5" height="17.4"/>
	<text transform="matrix(1.0229 0 0 1 119.7563 198.6348)" class="st4 st8 st9">DISEÑO</text>
	<text transform="matrix(1.0229 0 0 1 109.0156 208.5352)" class="st4 st8 st9">CURRICULAR</text>
	<circle class="st10" cx="159.3" cy="151.8" r="5.8"/>
	<text transform="matrix(1 0 0 1 156.3871 154.3145)" class="st11 st12">es</text>
	<circle class="st10" cx="172.1" cy="74.5" r="5.8"/>
	<text transform="matrix(1 0 0 1 169.0131 76.7052)" class="st11 st12">en</text>
	<circle class="st10" cx="90.6" cy="82" r="5.8"/>
	<text transform="matrix(1 0 0 1 88.4349 84.5343)" class="st11 st12">la</text>
	<path class="st10" d="M175.5,123.8h-6.9c-3.2,0-5.8-2.6-5.8-5.8v-0.1c0-3.2,2.6-5.8,5.8-5.8h6.9c3.2,0,5.8,2.6,5.8,5.8v0.1
		C181.3,121.2,178.7,123.8,175.5,123.8z"/>
	<text transform="matrix(1 0 0 1 166.5785 120.1593)" class="st11 st12">para</text>
	<path class="st10" d="M107.1,157.6H74c-3.2,0-5.8-2.6-5.8-5.8v-0.1c0-3.2,2.6-5.8,5.8-5.8h33.1c3.2,0,5.8,2.6,5.8,5.8v0.1
		C112.9,155,110.3,157.6,107.1,157.6z"/>
	<text transform="matrix(1 0 0 1 72.4535 154.3145)" class="st11 st12">se enmarca en</text>
	<path class="st10" d="M56.4,253.9H16.3c-3.2,0-5.8-2.6-5.8-5.8V248c0-3.2,2.6-5.8,5.8-5.8h40.1c3.2,0,5.8,2.6,5.8,5.8v0.1
		C62.2,251.4,59.6,253.9,56.4,253.9z"/>
	<text transform="matrix(1 0 0 1 12.9437 250.7052)" class="st11 st12">estructurado según</text>
	<path class="st10" d="M44.2,289.9H28.5c-3.2,0-5.8-2.6-5.8-5.8V284c0-3.2,2.6-5.8,5.8-5.8h15.7c3.2,0,5.8,2.6,5.8,5.8v0.1
		C50,287.3,47.4,289.9,44.2,289.9z"/>
	<text transform="matrix(1 0 0 1 27.2523 286.7003)" class="st11 st12">a saber</text>
	<path class="st10" d="M107.7,123.8H73.4c-3.2,0-5.8-2.6-5.8-5.8v-0.1c0-3.2,2.6-5.8,5.8-5.8h34.3c3.2,0,5.8,2.6,5.8,5.8v0.1
		C113.5,121.2,110.9,123.8,107.7,123.8z"/>
	<text transform="matrix(1 0 0 1 70.6273 120.5245)" class="st11 st12">a través del cual</text>
	<path class="st10" d="M104.8,39.1H76.3c-3.2,0-5.8-2.6-5.8-5.8v-0.1c0-3.2,2.6-5.8,5.8-5.8h28.5c3.2,0,5.8,2.6,5.8,5.8v0.1
		C110.6,36.6,108,39.1,104.8,39.1z"/>
	<text transform="matrix(1 0 0 1 73.3646 35.9102)" class="st11 st12">contribuyendo</text>
	<polygon class="st0" points="317.8,322.4 317.8,328.7 317.8,329.2 317.8,335.5 314.5,338.2 241.9,338.2 241.9,333.6 241.9,331.8 
		241.9,328.7 241.9,327.3 241.9,322.4 	"/>
	<polygon class="st0" points="401.6,368.6 401.6,374.9 401.6,375.4 401.6,381.7 398.3,384.3 325.8,384.3 325.8,379.8 325.8,378 
		325.8,374.9 325.8,373.5 325.8,368.6 	"/>
	<polygon class="st0" points="75.7,294.1 0,294.1 0,330.8 72.4,330.8 75.7,328.1 	"/>
	<rect x="7.3" y="297.7" class="st3" width="62.4" height="28.3"/>
	<text transform="matrix(1.0229 0 0 1 7.3071 300.8438)" class="st4 st5 st6">Ley 119 de 1994</text>
	<text transform="matrix(1.0229 0 0 1 7.3071 305.7437)" class="st4 st5 st6">Ley 749 de 2002</text>
	<text transform="matrix(1.0229 0 0 1 7.3071 310.7437)" class="st4 st5 st6">decreto 249 del 2004</text>
	<text transform="matrix(1.0229 0 0 1 7.3071 315.6436)" class="st4 st5 st6">acuerdo 08 de 1997</text>
	<text transform="matrix(1.0229 0 0 1 7.3071 320.5439)" class="st4 st5 st6">resolución 335 de 2012</text>
	<text transform="matrix(1.0229 0 0 1 7.3071 325.4438)" class="st4 st5 st6">resolución 2198 de 2019</text>
	<rect x="59.7" y="358.5" class="st3" width="58.2" height="16"/>
	<text transform="matrix(1.0229 0 0 1 59.6909 361.6533)" class="st4 st5 st6">Elaboración y </text>
	<text transform="matrix(1.0229 0 0 1 59.6909 366.5532)" class="st4 st5 st6">actualización </text>
	<text transform="matrix(1.0229 0 0 1 59.6909 371.5532)" class="st4 st5 st6">De programas</text>
	<rect x="152" y="358.5" class="st3" width="58.2" height="24.3"/>
	<text transform="matrix(1.0229 0 0 1 152.0288 361.6533)" class="st4 st5 st6">Expertos técnicos</text>
	<text transform="matrix(1.0229 0 0 1 152.0288 366.5532)" class="st4 st5 st6">Asesor metodológico</text>
	<text transform="matrix(1.0229 0 0 1 152.0288 371.5532)" class="st4 st5 st6">Gestor sectorial</text>
	<text transform="matrix(1.0229 0 0 1 152.0288 376.4536)" class="st4 st5 st6">Profesional de diseño</text>
	<text transform="matrix(1.0229 0 0 1 152.0288 381.3535)" class="st4 st5 st6">Coordinador académico</text>
	<path class="st10" d="M142,283.6h-11.1c-3.2,0-5.8-2.6-5.8-5.8v-0.1c0-3.2,2.6-5.8,5.8-5.8H142c3.2,0,5.8,2.6,5.8,5.8v0.1
		C147.8,281,145.2,283.6,142,283.6z"/>
	<text transform="matrix(1 0 0 1 133.4154 280.3839)" class="st11 st12">de</text>
	<path class="st10" d="M143.5,253.9h-14c-3.2,0-5.8-2.6-5.8-5.8V248c0-3.2,2.6-5.8,5.8-5.8h14c3.2,0,5.8,2.6,5.8,5.8v0.1
		C149.2,251.4,146.6,253.9,143.5,253.9z"/>
	<text transform="matrix(1 0 0 1 133.5697 250.7052)" class="st11 st12">es</text>
	<polygon class="st0" points="278.9,265.2 275.7,267.9 203.4,267.9 203.4,263.3 203.4,258.4 278.9,258.4 	"/>
	<polygon class="st0" points="554.8,393.3 551.6,395.9 479.3,395.9 479.3,391.4 479.3,386.5 554.8,386.5 	"/>
	<rect x="210.7" y="261.5" class="st3" width="58.2" height="4.4"/>
	<text transform="matrix(1.0229 0 0 1 210.7104 264.5889)" class="st4 st5 st6">NSCL</text>
	<path class="st10" d="M249.1,253.9h-18.6c-3.2,0-5.8-2.6-5.8-5.8V248c0-3.2,2.6-5.8,5.8-5.8h18.6c3.2,0,5.8,2.6,5.8,5.8v0.1
		C254.8,251.4,252.3,253.9,249.1,253.9z"/>
	<text transform="matrix(1 0 0 1 229.7416 250.7052)" class="st11 st12">parte de</text>
	<rect x="249.2" y="326" class="st3" width="62.4" height="10.9"/>
	<text transform="matrix(1.0229 0 0 1 249.2446 329.1357)" class="st4 st5 st6">Describe el desempeño de </text>
	<text transform="matrix(1.0229 0 0 1 249.2446 334.0356)" class="st4 st5 st6">un trabajador</text>
	<rect x="333.1" y="326" class="st3" width="62.4" height="9.3"/>
	<text transform="matrix(1.0229 0 0 1 333.061 329.1357)" class="st4 st5 st6">Conocimientos, productos </text>
	<text transform="matrix(1.0229 0 0 1 333.061 334.0356)" class="st4 st5 st6">y desempeños</text>
	<polyline class="st1" points="100.1,355.2 100.1,335.3 175.7,335.3 175.7,355.2 	"/>
	<polyline class="st1" points="469.3,497.6 469.3,413.8 564.9,413.8 564.9,437 	"/>
	<polyline class="st1" points="240.5,268.9 240.5,286.8 279.8,286.8 279.8,322.4 	"/>
	<circle class="st10" cx="100.1" cy="345.3" r="5.8"/>
	<text transform="matrix(1 0 0 1 97.9457 347.8155)" class="st11 st12">la</text>
	<path class="st10" d="M193.7,351.1h-36c-3.2,0-5.8-2.6-5.8-5.8v-0.1c0-3.2,2.6-5.8,5.8-5.8h36c3.2,0,5.8,2.6,5.8,5.8v0.1
		C199.5,348.5,196.9,351.1,193.7,351.1z"/>
	<text transform="matrix(1 0 0 1 156.5668 347.8155)" class="st11 st12">conformado por</text>
	<path class="st10" d="M283.9,318.2h-11.1c-3.2,0-5.8-2.6-5.8-5.8v-0.1c0-3.2,2.6-5.8,5.8-5.8h11.1c3.2,0,5.8,2.6,5.8,5.8v0.1
		C289.7,315.6,287.1,318.2,283.9,318.2z"/>
	<text transform="matrix(1 0 0 1 273.7543 314.9923)" class="st11 st12">que</text>
	<rect x="333.1" y="372.2" class="st3" width="62.4" height="10.6"/>
	<text transform="matrix(1.0229 0 0 1 333.061 375.3213)" class="st4 st5 st6">En los componentes</text>
	<text transform="matrix(1.0229 0 0 1 333.061 380.2217)" class="st4 st5 st6">Del diseño</text>
	<path class="st10" d="M372.1,359.2h-19.8c-3.2,0-5.8-2.6-5.8-5.8v-0.1c0-3.2,2.6-5.8,5.8-5.8h19.8c3.2,0,5.8,2.6,5.8,5.8v0.1
		C377.8,356.6,375.2,359.2,372.1,359.2z"/>
	<text transform="matrix(1 0 0 1 349.5062 355.9122)" class="st11 st12">se reflejan</text>
	<path class="st10" d="M370.6,318.2h-16.9c-3.2,0-5.8-2.6-5.8-5.8v-0.1c0-3.2,2.6-5.8,5.8-5.8h16.9c3.2,0,5.8,2.6,5.8,5.8v0.1
		C376.4,315.6,373.8,318.2,370.6,318.2z"/>
	<text transform="matrix(1 0 0 1 351.7875 314.9923)" class="st11 st12">contiene</text>
	<polygon class="st0" points="485.4,322.4 485.4,328.7 485.4,329.2 485.4,335.5 482.2,338.2 409.6,338.2 409.6,333.6 409.6,331.8 
		409.6,328.7 409.6,327.3 409.6,322.4 	"/>
	<polygon class="st0" points="698.6,437.2 698.6,443.5 698.6,444 698.6,450.3 695.3,453 622.8,453 622.8,448.4 622.8,446.6 
		622.8,443.5 622.8,442.1 622.8,437.2 	"/>
	<rect x="416.9" y="326" class="st3" width="62.4" height="10.9"/>
	<text transform="matrix(1.0229 0 0 1 416.8784 329.1357)" class="st4 st5 st6">Estrcutura funcional de la </text>
	<text transform="matrix(1.0229 0 0 1 416.8784 334.0356)" class="st4 st5 st6">ocupación efo</text>
	<rect x="486.4" y="390.1" class="st3" width="62.4" height="4.4"/>
	<text transform="matrix(1.0229 0 0 1 486.438 393.2246)" class="st4 st5 st6">OCUPACIÓN</text>
	<polygon class="st0" points="507,443.8 503.8,446.5 431.5,446.5 431.5,441.9 431.5,437 507,437 	"/>
	<rect x="438.7" y="440.7" class="st3" width="62.4" height="4.4"/>
	<text transform="matrix(1.0229 0 0 1 438.6597 443.7793)" class="st4 st5 st6">Cargos con similitudes</text>
	<polygon class="st0" points="698.3,536.2 695,538.8 622.8,538.8 622.8,534.3 622.8,529.4 698.3,529.4 	"/>
	<rect x="629.9" y="533" class="st3" width="62.4" height="4.4"/>
	<text transform="matrix(1.0229 0 0 1 629.9204 536.1299)" class="st4 st5 st6">Códigos</text>
	<rect x="533.6" y="440.7" class="st3" width="62.4" height="15"/>
	<text transform="matrix(1.0229 0 0 1 533.6157 443.7793)" class="st4 st5 st6">CIUO - clasificación </text>
	<text transform="matrix(1.0229 0 0 1 533.6157 448.6792)" class="st4 st5 st6">internacional unificada</text>
	<text transform="matrix(1.0229 0 0 1 533.6157 453.6792)" class="st4 st5 st6">de las ocupaciones</text>
	<path class="st10" d="M670.4,472.2h-19.8c-3.2,0-5.8-2.6-5.8-5.8v-0.1c0-3.2,2.6-5.8,5.8-5.8h19.8c3.2,0,5.8,2.6,5.8,5.8v0.1
		C676.2,469.6,673.6,472.2,670.4,472.2z"/>
	<text transform="matrix(1 0 0 1 653.063 468.9513)" class="st11 st12">define</text>
	<rect x="629.9" y="485.1" class="st3" width="62.4" height="14.1"/>
	<text transform="matrix(1.0229 0 0 1 629.9204 488.2656)" class="st4 st5 st6">Las áreas y campos, </text>
	<text transform="matrix(1.0229 0 0 1 629.9204 493.1655)" class="st4 st5 st6">niveles de cualificación de </text>
	<text transform="matrix(1.0229 0 0 1 629.9204 498.1655)" class="st4 st5 st6">las ocupaciones</text>
	<path class="st10" d="M676.1,525.2H643c-3.2,0-5.8-2.6-5.8-5.8v-0.1c0-3.2,2.6-5.8,5.8-5.8h33.1c3.2,0,5.8,2.6,5.8,5.8v0.1
		C681.9,522.6,679.3,525.2,676.1,525.2z"/>
	<text transform="matrix(1 0 0 1 641.3303 521.9865)" class="st11 st12">se representan</text>
	<polygon class="st0" points="507,504.4 503.8,507 431.5,507 431.5,502.5 431.5,497.6 507,497.6 	"/>
	<rect x="438.7" y="501.2" class="st3" width="62.4" height="4.4"/>
	<text transform="matrix(1.0229 0 0 1 438.6597 504.3213)" class="st4 st5 st6">En el sector productivo</text>
	<polygon class="st0" points="411.4,443.8 408.2,446.5 335.9,446.5 335.9,441.9 335.9,437 411.4,437 	"/>
	<rect x="343" y="440.7" class="st3" width="62.4" height="4.4"/>
	<text transform="matrix(1.0229 0 0 1 343.0288 443.7793)" class="st4 st5 st6">Tareas</text>
	<path class="st10" d="M464.8,359.2h-37.6c-3.2,0-5.8-2.6-5.8-5.8v-0.1c0-3.2,2.6-5.8,5.8-5.8h37.6c3.2,0,5.8,2.6,5.8,5.8v0.1
		C470.5,356.6,467.9,359.2,464.8,359.2z"/>
	<text transform="matrix(1 0 0 1 426.6263 355.9122)" class="st11 st12">se describen en</text>
	<path class="st10" d="M463.9,318.2h-36c-3.2,0-5.8-2.6-5.8-5.8v-0.1c0-3.2,2.6-5.8,5.8-5.8h36c3.2,0,5.8,2.6,5.8,5.8v0.1
		C469.7,315.6,467.1,318.2,463.9,318.2z"/>
	<text transform="matrix(1 0 0 1 426.7787 314.9923)" class="st11 st12">involucradas en</text>
	<path class="st10" d="M488.8,493.4h-38.9c-3.2,0-5.8-2.6-5.8-5.8v-0.1c0-3.2,2.6-5.8,5.8-5.8h38.9c3.2,0,5.8,2.6,5.8,5.8v0.1
		C494.5,490.8,491.9,493.4,488.8,493.4z"/>
	<line class="st1" x1="517" y1="413.8" x2="517" y2="395.9"/>
	<polyline class="st1" points="456.4,423.8 373.6,423.8 373.6,437 	"/>
	<rect x="629.9" y="440.7" class="st3" width="62.4" height="8.7"/>
	<text transform="matrix(1.0229 0 0 1 629.9204 443.7773)" class="st4 st5 st6">CNO- Clasificación </text>
	<text transform="matrix(1.0229 0 0 1 629.9204 448.6772)" class="st4 st5 st6">Nacional de Ocupaciones </text>
	<polyline class="st1" points="702.4,580.9 787,580.9 787,604.1 	"/>
	<polyline class="st1" points="618.4,580.9 534.3,580.9 534.3,604.1 	"/>
	<polyline class="st1" points="618.4,604.1 618.4,580.9 702.4,580.9 702.4,604.1 	"/>
	<polygon class="st0" points="824.2,610.9 821,613.5 748.7,613.5 748.7,609 748.7,604.1 824.2,604.1 	"/>
	<polygon class="st0" points="740.2,610.9 737,613.5 664.7,613.5 664.7,609 664.7,604.1 740.2,604.1 	"/>
	<rect x="587.7" y="607.7" class="st3" width="62.4" height="8.8"/>
	<text transform="matrix(1.0229 0 0 1 587.7505 610.8184)" class="st4 st5 st6">Área ocupacional con</text>
	<text transform="matrix(1.0229 0 0 1 587.7505 615.7188)" class="st4 st5 st6">Su nivel</text>
	<rect x="671.1" y="607.7" class="st3" width="62.4" height="5.4"/>
	<text transform="matrix(1.0229 0 0 1 671.1196 610.8184)" class="st4 st5 st6">Campo ocupacional</text>
	<polygon class="st0" points="572.1,610.9 568.8,613.5 496.5,613.5 496.5,609 496.5,604.1 572.1,604.1 	"/>
	<rect x="503.7" y="607.7" class="st3" width="62.4" height="4.4"/>
	<text transform="matrix(1.0229 0 0 1 503.7065 610.8184)" class="st4 st5 st6"> Área de desempeño</text>
	<rect x="755.8" y="607.7" class="st3" width="62.4" height="4.4"/>
	<text transform="matrix(1.0229 0 0 1 755.8374 610.8164)" class="st4 st5 st6"> Ocupación</text>
	<text transform="matrix(1 0 0 1 447.8734 490.1778)" class="st11 st12">como se conocen</text>
	<path class="st10" d="M488.8,429.6h-38.9c-3.2,0-5.8-2.6-5.8-5.8v-0.1c0-3.2,2.6-5.8,5.8-5.8h38.9c3.2,0,5.8,2.6,5.8,5.8v0.1
		C494.5,427,491.9,429.6,488.8,429.6z"/>
	<text transform="matrix(1 0 0 1 447.7172 426.3224)" class="st11 st12">es un conjunto de</text>
	<path class="st10" d="M582,429.6h-34.3c-3.2,0-5.8-2.6-5.8-5.8v-0.1c0-3.2,2.6-5.8,5.8-5.8H582c3.2,0,5.8,2.6,5.8,5.8v0.1
		C587.7,427,585.1,429.6,582,429.6z"/>
	<text transform="matrix(1 0 0 1 549.2914 426.3224)" class="st11 st12">está descrita</text>
	<circle class="st10" cx="660.5" cy="548.8" r="5.8"/>
	<polygon class="st0" points="698.3,565.5 695,568.2 622.8,568.2 622.8,563.6 622.8,558.7 698.3,558.7 	"/>
	<rect x="629.9" y="562.3" class="st3" width="62.4" height="4.4"/>
	<text transform="matrix(1.0229 0 0 1 629.9204 565.4678)" class="st4 st5 st6">Representan</text>
	<text transform="matrix(1 0 0 1 657.6312 551.3243)" class="st11 st12">se</text>
	<line class="st1" x1="660.5" y1="568.2" x2="660.5" y2="580.9"/>
	<path class="st10" d="M634.1,598.3h-28.5c-3.2,0-5.8-2.6-5.8-5.8v-0.1c0-3.2,2.6-5.8,5.8-5.8h28.5c3.2,0,5.8,2.6,5.8,5.8v0.1
		C639.8,595.7,637.2,598.3,634.1,598.3z"/>
	<text transform="matrix(1 0 0 1 601.8363 595.0177)" class="st11 st12">segundo dígito</text>
	<path class="st10" d="M548.6,598.3H520c-3.2,0-5.8-2.6-5.8-5.8v-0.1c0-3.2,2.6-5.8,5.8-5.8h28.5c3.2,0,5.8,2.6,5.8,5.8v0.1
		C554.3,595.7,551.7,598.3,548.6,598.3z"/>
	<text transform="matrix(1 0 0 1 519.0912 595.0177)" class="st11 st12">primer dígito</text>
	<path class="st10" d="M715.1,598.3h-25.6c-3.2,0-5.8-2.6-5.8-5.8v-0.1c0-3.2,2.6-5.8,5.8-5.8h25.6c3.2,0,5.8,2.6,5.8,5.8v0.1
		C720.9,595.7,718.3,598.3,715.1,598.3z"/>
	<text transform="matrix(1 0 0 1 686.3391 595.0177)" class="st11 st12">terecer dígito</text>
	<path class="st10" d="M799.8,598.3h-25.6c-3.2,0-5.8-2.6-5.8-5.8v-0.1c0-3.2,2.6-5.8,5.8-5.8h25.6c3.2,0,5.8,2.6,5.8,5.8v0.1
		C805.6,595.7,803,598.3,799.8,598.3z"/>
	<text transform="matrix(1 0 0 1 771.968 595.0177)" class="st11 st12">cuarto dígito</text>
	<polygon class="st0" points="75.6,265.2 72.4,267.9 0.1,267.9 0.1,263.3 0.1,258.4 75.6,258.4 	"/>
	<rect x="7.3" y="261.8" class="st3" width="58.2" height="4.1"/>
	<text transform="matrix(1.0229 0 0 1 7.3071 264.7041)" class="st4 st11 st6">Normativa institucional</text>
	<polygon class="st0" points="100,287.4 100,310.7 172.6,310.7 175.8,308 175.8,287.4 	"/>
	<rect x="107.4" y="291.4" class="st3" width="62.4" height="15.2"/>
	<text transform="matrix(1.0229 0 0 1 107.3833 294.5273)" class="st4 st5 st6">La dirección de formación </text>
	<text transform="matrix(1.0229 0 0 1 107.3833 299.4272)" class="st4 st5 st6">profesional y el grupo de </text>
	<text transform="matrix(1.0229 0 0 1 107.3833 304.4272)" class="st4 st5 st6">Gestión curricular</text>
</g>
<g id="Grupo_7015_1_" transform="translate(1368.06 602.961)">
	<path id="Trazado_15442_1_" class="st13" d="M-1275.8-89.7c2.1,0,3.9,1.7,3.9,3.9s-1.7,3.9-3.9,3.9s-3.9-1.7-3.9-3.9l0,0
		C-1279.7-87.9-1278-89.7-1275.8-89.7 M-1311.3-105.9c2,0,3.6,1.6,3.6,3.6s-1.6,3.6-3.6,3.6s-3.6-1.6-3.6-3.6l0,0
		C-1314.9-104.2-1313.3-105.9-1311.3-105.9z M-1338.8-36c2.1,0,3.9,1.7,3.9,3.9c0,2.1-1.7,3.9-3.9,3.9c-2.1,0-3.9-1.7-3.9-3.9
		C-1342.7-34.2-1341-36-1338.8-36L-1338.8-36L-1338.8-36z M-1338.8-39.3c1.3,0,2.5,0.3,3.6,0.9l12-12.9c-5.6-7-4.5-17.1,2.4-22.8
		c2.2-1.8,4.8-3,7.6-3.4v-17.8c-3.8-1-6-4.9-5-8.6c1-3.8,4.9-6,8.6-5c3.8,1,6,4.9,5,8.6c-0.6,2.5-2.6,4.4-5,5v17.6
		c4.2,0.3,8.1,2.2,10.9,5.3l16-10.9c-1.4-3.7,0.6-7.9,4.3-9.2c3.7-1.4,7.9,0.6,9.2,4.3c1.4,3.7-0.6,7.9-4.3,9.2
		c-2.5,0.9-5.2,0.4-7.2-1.4l-15.9,10.9c4.4,7.8,1.6,17.7-6.2,22c-5.7,3.2-12.8,2.7-18-1.4l-11.9,12.9c2.3,3.5,1.3,8.1-2.1,10.4
		c-3.5,2.3-8.1,1.3-10.4-2.1c-2.3-3.5-1.3-8.1,2.1-10.4C-1341.7-38.9-1340.3-39.3-1338.8-39.3L-1338.8-39.3z"/>
	<path id="Trazado_15443_1_" class="st14" d="M-1348-87.7c6.3,0,11.5,5.1,11.5,11.5c0,0.8-0.1,1.7-0.3,2.5l5.5,2.2
		c3-6.2,8.6-10.7,15.3-12.3v3.7c-10.3,3-16.2,13.8-13.3,24.1c0.5,1.7,1.2,3.3,2.1,4.8l-2.5,2.7c-3.9-5.8-5-13-3-19.7l-5.5-2.2
		c-3.2,5.5-10.2,7.3-15.7,4.1c-5.5-3.2-7.3-10.2-4.1-15.7C-1355.8-85.5-1352-87.7-1348-87.7 M-1282.9-48.4c5.6,0,10.1,4.5,10.1,10.1
		s-4.5,10.1-10.1,10.1s-10.1-4.5-10.1-10.1c0-1.8,0.5-3.5,1.3-5l-2.5-2.1l-0.2,0.2c-7.6,7.6-19.5,8.9-28.6,3.1l2.5-2.7
		c9.2,5.4,21.2,2.4,26.6-6.9c3-5.2,3.5-11.4,1.3-17l3-2.1c3.2,7.4,2.3,16-2.3,22.6l2.5,2.1C-1287.6-47.6-1285.3-48.4-1282.9-48.4
		L-1282.9-48.4z M-1282.9-43.2c2.9,0,5.3,2.4,5.3,5.3s-2.4,5.3-5.3,5.3s-5.3-2.4-5.3-5.3C-1288.1-40.8-1285.8-43.2-1282.9-43.2
		L-1282.9-43.2z M-1348.1-82.3c3.2,0,5.8,2.6,5.8,5.8s-2.6,5.8-5.8,5.8c-3.2,0-5.8-2.6-5.8-5.8
		C-1353.9-79.7-1351.3-82.3-1348.1-82.3L-1348.1-82.3z M-1306.6-84.2c4.4,0.8,8.5,2.8,11.7,5.8l-3.1,2.1c-2.5-2.1-5.5-3.6-8.7-4.3
		L-1306.6-84.2z"/>
	<path id="Trazado_15444_1_" class="st15" d="M-1275.8-89.7c2.1,0,3.9,1.7,3.9,3.9s-1.7,3.9-3.9,3.9s-3.9-1.7-3.9-3.9l0,0
		C-1279.7-87.9-1278-89.7-1275.8-89.7 M-1311.3-105.9c2,0,3.6,1.6,3.6,3.6s-1.6,3.6-3.6,3.6s-3.6-1.6-3.6-3.6l0,0
		C-1314.9-104.2-1313.3-105.9-1311.3-105.9z M-1326.8-61.6c0.1-7.9,5.9-14.6,13.7-15.8v-17.8c-3.8-1-6-4.9-5-8.6c1-3.8,4.9-6,8.6-5
		c3.8,1,6,4.9,5,8.6c-0.6,2.5-2.6,4.4-5,5v17.6c4.2,0.3,8.1,2.2,10.9,5.3l16-10.9c-1.4-3.7,0.6-7.9,4.3-9.2c3.7-1.4,7.9,0.6,9.2,4.3
		c1.4,3.7-0.6,7.9-4.3,9.2c-2.5,0.9-5.2,0.4-7.2-1.4l-15.9,10.9c2.1,3.8,2.6,8.2,1.5,12.4c-6.3-3.7-14.6-3.8-29.8-4.4
		C-1325.5-61.5-1326.2-61.6-1326.8-61.6L-1326.8-61.6z"/>
	<path id="Trazado_15445_1_" class="st16" d="M-1286.4-47.8c0.9,1.4,1.8,3,2.7,4.7c2.9-0.5,5.6,1.5,6.1,4.4c0,0.3,0.1,0.6,0.1,0.9
		c0,1.3-0.5,2.5-1.3,3.5c0.9,1.2,2.1,2.3,3.3,3.2c3.9-4,3.7-10.5-0.3-14.3C-1278.7-48.3-1282.8-49.1-1286.4-47.8 M-1292.3-55
		c1,0.9,1.9,1.8,2.7,2.8c2.6-5.9,2.6-12.6,0-18.5l-3,2.1C-1290.8-64.3-1290.7-59.5-1292.3-55L-1292.3-55z M-1353.9-86.1
		c1,1.5,2,3,2.9,4.6c2.8-1.6,6.3-0.6,7.9,2.2c1.4,2.4,0.8,5.5-1.3,7.3c1.2,1.6,2.6,3,4.1,4.3c0.9-0.8,1.6-1.7,2.2-2.7l5.5,2.2
		c-0.5,1.6-0.8,3.2-0.9,4.9c1.1,0.5,2.3,0.9,3.5,1.2c0.3-8.4,6-15.6,14-17.9v-3.7c-6.7,1.6-12.3,6.1-15.3,12.3l-5.5-2.2
		c1.4-6.2-2.5-12.3-8.7-13.7C-1348.4-88-1351.4-87.6-1353.9-86.1L-1353.9-86.1z M-1306.6-84.2c4.4,0.8,8.5,2.8,11.7,5.8l-3.1,2.1
		c-2.5-2.1-5.5-3.6-8.7-4.3L-1306.6-84.2z"/>
</g>
<g id="Grupo_7016_1_" transform="translate(1375.479 692.971)">
	<path id="Trazado_15446_1_" class="st17" d="M-1321.5-109.2c21,0,38,1.1,38,2.5s-17,2.5-38,2.5s-38-1.1-38-2.5
		S-1342.4-109.2-1321.5-109.2"/>
	<path id="Trazado_15447_1_" class="st18" d="M-1321.5-109.1c20.3,0,36.8,1.1,36.8,2.5s-16.5,2.5-36.8,2.5s-36.8-1.1-36.8-2.5
		S-1341.8-109.1-1321.5-109.1"/>
	<path id="Trazado_15448_1_" class="st19" d="M-1321.5-109c19.7,0,35.6,1.1,35.6,2.4s-16,2.4-35.6,2.4s-35.6-1.1-35.6-2.4
		S-1341.2-109-1321.5-109"/>
	<path id="Trazado_15449_1_" class="st20" d="M-1321.5-109c19,0,34.5,1,34.5,2.3s-15.4,2.3-34.5,2.3s-34.5-1-34.5-2.3
		S-1340.5-109-1321.5-109"/>
	<path id="Trazado_15450_1_" class="st21" d="M-1321.5-108.9c18.4,0,33.3,1,33.3,2.2s-14.9,2.2-33.3,2.2s-33.3-1-33.3-2.2
		S-1339.9-108.9-1321.5-108.9"/>
	<path id="Trazado_15451_1_" class="st22" d="M-1321.5-108.8c17.8,0,32.1,1,32.1,2.1s-14.4,2.1-32.1,2.1s-32.1-1-32.1-2.1
		S-1339.2-108.8-1321.5-108.8"/>
	<path id="Trazado_15452_1_" class="st23" d="M-1321.5-108.7c17.1,0,31,0.9,31,2.1s-13.9,2.1-31,2.1s-31-0.9-31-2.1
		S-1338.6-108.7-1321.5-108.7"/>
	<path id="Trazado_15453_1_" class="st24" d="M-1321.5-108.6c16.5,0,29.8,0.9,29.8,2s-13.3,2-29.8,2s-29.8-0.9-29.8-2
		S-1337.9-108.6-1321.5-108.6"/>
	<path id="Trazado_15454_1_" class="st25" d="M-1321.5-108.6c15.8,0,28.6,0.9,28.6,1.9s-12.8,1.9-28.6,1.9s-28.6-0.9-28.6-1.9
		S-1337.3-108.6-1321.5-108.6"/>
	<path id="Trazado_15455_1_" class="st26" d="M-1321.5-108.5c15.2,0,27.5,0.8,27.5,1.8s-12.3,1.8-27.5,1.8s-27.5-0.8-27.5-1.8
		S-1336.6-108.5-1321.5-108.5"/>
	<path id="Trazado_15456_1_" class="st27" d="M-1321.5-108.4c14.5,0,26.3,0.8,26.3,1.8s-11.8,1.8-26.3,1.8s-26.3-0.8-26.3-1.8
		S-1336-108.4-1321.5-108.4"/>
	<path id="Trazado_15457_1_" class="st28" d="M-1321.5-108.3c13.9,0,25.1,0.8,25.1,1.7s-11.2,1.7-25.1,1.7s-25.1-0.8-25.1-1.7
		S-1335.3-108.3-1321.5-108.3"/>
	<path id="Trazado_15458_1_" class="st29" d="M-1321.5-108.3c13.2,0,24,0.7,24,1.6s-10.7,1.6-24,1.6s-24-0.7-24-1.6
		S-1334.7-108.3-1321.5-108.3"/>
	<path id="Trazado_15459_1_" class="st29" d="M-1321.5-108.2c12.6,0,22.8,0.7,22.8,1.5s-10.2,1.5-22.8,1.5s-22.8-0.7-22.8-1.5
		S-1334.1-108.2-1321.5-108.2"/>
	<path id="Trazado_15460_1_" class="st30" d="M-1321.5-108.1c11.9,0,21.6,0.6,21.6,1.4s-9.7,1.4-21.6,1.4s-21.6-0.6-21.6-1.4
		S-1333.4-108.1-1321.5-108.1"/>
	<path id="Trazado_15461_1_" class="st31" d="M-1321.5-108c11.3,0,20.5,0.6,20.5,1.4s-9.2,1.4-20.5,1.4s-20.5-0.6-20.5-1.4
		S-1332.8-108-1321.5-108"/>
	<path id="Trazado_15462_1_" class="st32" d="M-1321.5-107.9c10.7,0,19.3,0.6,19.3,1.3s-8.6,1.3-19.3,1.3s-19.3-0.6-19.3-1.3
		S-1332.1-107.9-1321.5-107.9"/>
	<path id="Trazado_15463_1_" class="st33" d="M-1321.5-107.9c10,0,18.1,0.5,18.1,1.2s-8.1,1.2-18.1,1.2s-18.1-0.5-18.1-1.2
		S-1331.5-107.9-1321.5-107.9"/>
	<path id="Trazado_15464_1_" class="st34" d="M-1321.5-107.8c9.4,0,16.9,0.5,16.9,1.1s-7.6,1.1-16.9,1.1s-16.9-0.5-16.9-1.1
		S-1330.8-107.8-1321.5-107.8"/>
	<path id="Trazado_15465_1_" class="st35" d="M-1321.5-107.7c8.7,0,15.8,0.5,15.8,1.1s-7.1,1.1-15.8,1.1s-15.8-0.5-15.8-1.1
		S-1330.2-107.7-1321.5-107.7"/>
	<path id="Trazado_15466_1_" class="st36" d="M-1321.5-107.6c8.1,0,14.6,0.4,14.6,1s-6.5,1-14.6,1s-14.6-0.4-14.6-1
		S-1329.5-107.6-1321.5-107.6"/>
	<path id="Trazado_15467_1_" class="st37" d="M-1321.5-107.6c7.4,0,13.4,0.4,13.4,0.9s-6,0.9-13.4,0.9s-13.4-0.4-13.4-0.9
		S-1328.9-107.6-1321.5-107.6"/>
	<path id="Trazado_15468_1_" class="st38" d="M-1321.5-107.5c6.8,0,12.3,0.4,12.3,0.8s-5.5,0.8-12.3,0.8s-12.3-0.4-12.3-0.8
		S-1328.2-107.5-1321.5-107.5"/>
	<path id="Trazado_15469_1_" class="st39" d="M-1321.5-107.4c6.1,0,11.1,0.3,11.1,0.7s-5,0.7-11.1,0.7s-11.1-0.3-11.1-0.7
		S-1327.6-107.4-1321.5-107.4"/>
	<path id="Trazado_15470_1_" class="st40" d="M-1321.5-107.3c5.5,0,9.9,0.3,9.9,0.7s-4.4,0.7-9.9,0.7s-9.9-0.3-9.9-0.7
		S-1327-107.3-1321.5-107.3"/>
	<path id="Trazado_15471_1_" class="st41" d="M-1321.5-107.2c4.8,0,8.8,0.3,8.8,0.6s-3.9,0.6-8.8,0.6s-8.8-0.3-8.8-0.6
		S-1326.3-107.2-1321.5-107.2"/>
	<path id="Trazado_15472_1_" class="st42" d="M-1321.5-107.2c4.2,0,7.6,0.2,7.6,0.5s-3.4,0.5-7.6,0.5s-7.6-0.2-7.6-0.5
		S-1325.7-107.2-1321.5-107.2"/>
</g>
<text transform="matrix(1 0 0 1 111.4828 578.6589)" class="st43 st44 st45">CLICK PARA AUMENTAR</text>
<rect x="111.5" y="555.1" class="st43" width="117.3" height="13"/>
<text transform="matrix(1 0 0 1 116.1146 565.9539)" class="st4 st44 st46">MAPA CONCEPTUAL</text>
<text transform="matrix(1 0 0 1 111.403 537.6138)" class="st47"><tspan x="0" y="0" class="st48 st44 st49">PROCEDIMIENTO DE</tspan><tspan x="0" y="11.7" class="st48 st44 st49">DISEÑO CURRICULAR.</tspan></text>
</svg>
