<?xml version="1.0" encoding="utf-8"?>
<!-- Generator: Adobe Illustrator 24.1.2, SVG Export Plug-In . SVG Version: 6.00 Build 0)  -->
<svg version="1.1" id="Capa_1" xmlns="http://www.w3.org/2000/svg" xmlns:xlink="http://www.w3.org/1999/xlink" x="0px" y="0px"
	 viewBox="0 0 824 605.1" style="enable-background:new 0 0 824 605.1;" xml:space="preserve">
<style type="text/css">
	.st0{fill:none;stroke:#3C3C3C;stroke-width:1.1406;stroke-miterlimit:10;}
	.st1{fill:#3C3C3C;}
	.st2{fill:#C74F29;}
	.st3{fill:#DE6C19;}
	.st4{fill:#FFFFFF;}
	.st5{font-family:'OpenSans-Bold';}
	.st6{font-size:6.289px;}
	.st7{fill:#EFC239;}
	.st8{fill:none;}
	.st9{font-size:5.3905px;}
	.st10{font-size:9.4335px;}
	.st11{font-family:'BebasNeueBold';}
	.st12{font-size:12.9373px;}
	.st13{letter-spacing:1;}
	.st14{fill:#F7E450;}
	.st15{font-size:4.9413px;}
	.st16{fill:#DADADA;}
	.st17{fill:#B3B3B3;}
	.st18{fill:none;stroke:#B3B3B3;stroke-width:0.8984;stroke-miterlimit:10;}
	.st19{fill:#FFFFFF;stroke:#565656;stroke-width:0.4724;stroke-miterlimit:10;}
	.st20{font-family:'OpenSans';}
	.st21{fill-rule:evenodd;clip-rule:evenodd;fill:#C94F29;}
	.st22{fill-rule:evenodd;clip-rule:evenodd;fill:#FFC800;}
	.st23{fill-rule:evenodd;clip-rule:evenodd;fill:#E06C19;}
	.st24{fill-rule:evenodd;clip-rule:evenodd;fill:#E08C19;}
	.st25{fill-rule:evenodd;clip-rule:evenodd;fill:#F2F2F2;}
	.st26{fill-rule:evenodd;clip-rule:evenodd;fill:#F1F1F1;}
	.st27{fill-rule:evenodd;clip-rule:evenodd;fill:#F0F0F0;}
	.st28{fill-rule:evenodd;clip-rule:evenodd;fill:#EFEFEF;}
	.st29{fill-rule:evenodd;clip-rule:evenodd;fill:#EEEEEE;}
	.st30{fill-rule:evenodd;clip-rule:evenodd;fill:#EDEDED;}
	.st31{fill-rule:evenodd;clip-rule:evenodd;fill:#ECECEC;}
	.st32{fill-rule:evenodd;clip-rule:evenodd;fill:#EBEBEB;}
	.st33{fill-rule:evenodd;clip-rule:evenodd;fill:#EAEAEA;}
	.st34{fill-rule:evenodd;clip-rule:evenodd;fill:#E9E9E9;}
	.st35{fill-rule:evenodd;clip-rule:evenodd;fill:#E8E8E8;}
	.st36{fill-rule:evenodd;clip-rule:evenodd;fill:#E7E7E7;}
	.st37{fill-rule:evenodd;clip-rule:evenodd;fill:#E6E6E6;}
	.st38{fill-rule:evenodd;clip-rule:evenodd;fill:#E5E5E5;}
	.st39{fill-rule:evenodd;clip-rule:evenodd;fill:#E4E4E4;}
	.st40{fill-rule:evenodd;clip-rule:evenodd;fill:#E3E3E3;}
	.st41{fill-rule:evenodd;clip-rule:evenodd;fill:#E2E2E2;}
	.st42{fill-rule:evenodd;clip-rule:evenodd;fill:#E1E1E1;}
	.st43{fill-rule:evenodd;clip-rule:evenodd;fill:#E0E0E0;}
	.st44{fill-rule:evenodd;clip-rule:evenodd;fill:#DFDFDF;}
	.st45{fill-rule:evenodd;clip-rule:evenodd;fill:#DEDEDE;}
	.st46{fill-rule:evenodd;clip-rule:evenodd;fill:#DDDDDD;}
	.st47{fill-rule:evenodd;clip-rule:evenodd;fill:#DCDCDC;}
	.st48{fill-rule:evenodd;clip-rule:evenodd;fill:#DBDBDB;}
	.st49{fill-rule:evenodd;clip-rule:evenodd;fill:#DADADA;}
	.st50{fill-rule:evenodd;clip-rule:evenodd;fill:#D9D9D9;}
	.st51{enable-background:new    ;}
	.st52{font-family:'Montserrat-Bold';}
	.st53{font-size:12.4103px;}
	.st54{fill:#787878;}
	.st55{font-size:8px;}
	.st56{font-size:10px;}
</style>
<g>
	<g>
		<g>
			<line class="st0" x1="360.8" y1="66.1" x2="360.8" y2="182.3"/>
			<g>
				<polygon class="st1" points="358,66.9 360.8,62 363.7,66.9 				"/>
			</g>
			<g>
				<polygon class="st1" points="358,181.5 360.8,186.4 363.7,181.5 				"/>
			</g>
		</g>
	</g>
	<g>
		<g>
			<line class="st0" x1="508.8" y1="124.2" x2="302.7" y2="124.2"/>
			<g>
				<polygon class="st1" points="508,121.4 512.9,124.2 508,127 				"/>
			</g>
			<g>
				<polygon class="st1" points="303.6,121.4 298.6,124.2 303.6,127 				"/>
			</g>
		</g>
	</g>
	<circle class="st2" cx="360.8" cy="124.2" r="44.9"/>
	<rect x="320.6" y="11.5" class="st3" width="80.4" height="47.6"/>
	<rect x="515.9" y="100.4" class="st3" width="80.4" height="47.6"/>
	<rect x="215.2" y="100.4" class="st3" width="80.4" height="47.6"/>
	<g>
		<text transform="matrix(1.0359 0 0 1 336.1235 46.5107)" class="st4 st5 st6">DEFINICIÓN DE</text>
		<text transform="matrix(1.0359 0 0 1 347.3115 54.0107)" class="st4 st5 st6">LA GUÍA</text>
	</g>
	<g>
		<text transform="matrix(1.0359 0 0 1 527.187 135.4551)" class="st4 st5 st6">CONTENIDOS DEL</text>
		<text transform="matrix(1.0359 0 0 1 543.3472 142.9551)" class="st4 st5 st6">DISEÑO</text>
	</g>
	<polygon class="st7" points="215.3,0 215.3,23.5 215.2,23.5 215.2,70.5 295.6,70.5 295.6,23.5 295.7,23.5 295.7,0 	"/>
	<rect x="220" y="14.9" class="st8" width="70.9" height="40.7"/>
	<text transform="matrix(1.0359 0 0 1 219.9829 19.5352)" class="st1 st5 st9">Orienta las acciones del </text>
	<text transform="matrix(1.0359 0 0 1 219.9829 26.0352)" class="st1 st5 st9">procedimiento de diseño </text>
	<text transform="matrix(1.0359 0 0 1 219.9829 32.4351)" class="st1 st5 st9">curricular a través del </text>
	<text transform="matrix(1.0359 0 0 1 219.9829 38.9351)" class="st1 st5 st9">cual se elaboran y </text>
	<text transform="matrix(1.0359 0 0 1 219.9829 45.4351)" class="st1 st5 st9">actualizan programas de </text>
	<text transform="matrix(1.0359 0 0 1 219.9829 51.835)" class="st1 st5 st9">Formación</text>
	<g>
		<text transform="matrix(1.0359 0 0 1 235.6577 135.4551)" class="st4 st5 st6">ELEMENTOS</text>
	</g>
	<g>
		<rect x="326.1" y="112.1" class="st8" width="69.4" height="24.1"/>
		<text transform="matrix(1.0359 0 0 1 342.3188 119.3115)" class="st4 st5 st10">DISEÑO</text>
		<text transform="matrix(1.0359 0 0 1 329.7847 130.6113)" class="st4 st5 st10">CURRICULAR</text>
	</g>
	<g>
		<circle class="st4" cx="360.8" cy="27.2" r="9"/>
		<text transform="matrix(1.0229 0 0 1 357.561 31.5181)" class="st3 st11 st12 st13">1</text>
	</g>
	<g>
		<circle class="st4" cx="255.4" cy="116.1" r="9"/>
		<text transform="matrix(1.0229 0 0 1 252.0962 120.4619)" class="st3 st11 st12 st13">2</text>
	</g>
	<g>
		<circle class="st4" cx="556.1" cy="116.1" r="9"/>
		<text transform="matrix(1.0229 0 0 1 552.7935 120.4619)" class="st3 st11 st12 st13">4</text>
	</g>
	<g>
		<g>
			<line class="st0" x1="320.7" y1="35.3" x2="299.8" y2="35.3"/>
			<g>
				<polygon class="st1" points="300.6,32.4 295.7,35.3 300.6,38.1 				"/>
			</g>
		</g>
	</g>
	<g>
		<g>
			<polyline class="st0" points="556.1,148.5 556.1,221.9 556.1,233.1 614.1,233.1 			"/>
			<g>
				<polygon class="st1" points="613.3,236 618.2,233.1 613.3,230.3 				"/>
			</g>
		</g>
	</g>
	<rect x="107.4" y="112.5" class="st7" width="80.4" height="23.4"/>
	<rect x="107.4" y="80.6" class="st7" width="80.4" height="23.4"/>
	<rect x="107.4" y="144.5" class="st7" width="80.4" height="23.4"/>
	<g>
		<text transform="matrix(1.0359 0 0 1 136.0435 94.9326)" class="st1 st5 st9">NSCL</text>
		<text transform="matrix(1.0359 0 0 1 111.4829 126.8867)" class="st1 st5 st9">REDES DE CONOCIMIENTO</text>
		<text transform="matrix(1.0359 0 0 1 111.4829 154.8477)" class="st1 st5 st9">DENOMINACIÓN DEL</text>
		<text transform="matrix(1.0359 0 0 1 111.4829 161.3477)" class="st1 st5 st9">PROGRAMA</text>
	</g>
	<rect y="128.5" class="st14" width="80.4" height="23.4"/>
	<rect y="160.5" class="st14" width="80.4" height="23.4"/>
	<g>
		<text transform="matrix(1.0359 0 0 1 15.52 141.5781)" class="st1 st5 st15">Mapa Ocupacional</text>
	</g>
	<g>
		<text transform="matrix(1.0359 0 0 1 12.2144 170.8242)" class="st1 st5 st15">Clasificación Nacional</text>
		<text transform="matrix(1.0359 0 0 1 12.2144 176.7241)" class="st1 st5 st15">de Ocupaciones (CN0)</text>
	</g>
	<g>
		<g>
			<line class="st0" x1="191.9" y1="124.2" x2="215.2" y2="124.2"/>
			<g>
				<polygon class="st1" points="192.7,127 187.8,124.2 192.7,121.4 				"/>
			</g>
		</g>
	</g>
	<g>
		<g>
			<polyline class="st0" points="191.9,156.2 201.6,156.3 201.6,92.3 191.9,92.3 			"/>
			<g>
				<polygon class="st1" points="192.7,159.1 187.8,156.2 192.7,153.4 				"/>
			</g>
			<g>
				<polygon class="st1" points="192.7,89.4 187.8,92.3 192.7,95.1 				"/>
			</g>
		</g>
	</g>
	<line class="st0" x1="107.4" y1="156.3" x2="94" y2="156.3"/>
	<g>
		<g>
			<polyline class="st0" points="84.5,140.2 94.2,140.2 94.2,172 84.5,172 			"/>
			<g>
				<polygon class="st1" points="85.3,143 80.4,140.2 85.3,137.3 				"/>
			</g>
			<g>
				<polygon class="st1" points="85.3,169.2 80.4,172 85.3,174.9 				"/>
			</g>
		</g>
	</g>
	<rect x="320.7" y="185.3" class="st3" width="80.4" height="47.6"/>
	<g>
		<text transform="matrix(1.0359 0 0 1 346.1831 220.3564)" class="st4 st5 st6">PERFILES</text>
	</g>
	<g>
		<circle class="st4" cx="360.9" cy="201" r="9"/>
		<text transform="matrix(1.0229 0 0 1 357.6606 205.3633)" class="st3 st11 st12 st13">3</text>
	</g>
	<g>
		<g>
			<line class="st0" x1="415.8" y1="279.8" x2="415.8" y2="310.1"/>
			<g>
				<polygon class="st1" points="413,280.7 415.8,275.7 418.7,280.7 				"/>
			</g>
			<g>
				<polygon class="st1" points="413,309.3 415.8,314.2 418.7,309.3 				"/>
			</g>
		</g>
	</g>
	<g>
		<g>
			<line class="st0" x1="308.5" y1="310.1" x2="308.5" y2="279.8"/>
			<g>
				<polygon class="st1" points="311.3,309.3 308.5,314.2 305.6,309.3 				"/>
			</g>
			<g>
				<polygon class="st1" points="311.3,280.7 308.5,275.7 305.6,280.7 				"/>
			</g>
		</g>
	</g>
	<polygon class="st14" points="268.3,314 268.3,332.5 268.2,332.5 268.2,345 348.6,345 348.6,332.5 348.7,332.5 348.7,314 	"/>
	<g>
		<rect x="273" y="318.2" class="st8" width="70.9" height="24.6"/>
		<text transform="matrix(1.0359 0 0 1 272.9907 322.4189)" class="st1 st5 st15">Restricciones de ingreso </text>
		<text transform="matrix(1.0359 0 0 1 272.9907 328.3188)" class="st1 st5 st15">por el sector</text>
		<text transform="matrix(1.0359 0 0 1 272.9907 340.2188)" class="st1 st5 st15">Competencias de ingreso</text>
	</g>
	<polygon class="st14" points="375.6,314 375.6,324.3 375.5,324.3 375.5,345 456,345 456,324.3 456,324.3 456,314 	"/>
	<g>
		<rect x="380.4" y="323.2" class="st8" width="70.9" height="12.5"/>
		<text transform="matrix(1.0359 0 0 1 380.3521 327.4688)" class="st1 st5 st15">Competencias del egresado</text>
		<text transform="matrix(1.0359 0 0 1 380.3521 333.3687)" class="st1 st5 st15">Productos Desempeños.</text>
	</g>
	<rect x="268.2" y="263.9" class="st7" width="80.4" height="23.4"/>
	<text transform="matrix(1.0359 0 0 1 297.0327 278.2715)" class="st1 st5 st15">INGRESO</text>
	<rect x="375.6" y="263.9" class="st7" width="80.4" height="23.4"/>
	<text transform="matrix(1.0359 0 0 1 406.3306 278.2715)" class="st1 st5 st15">EGRESO</text>
	<g>
		<line class="st0" x1="361.4" y1="233.4" x2="361.4" y2="246.8"/>
		<g>
			<g>
				<polyline class="st0" points="308.5,259.8 308.5,246.5 415.8,246.5 415.8,259.8 				"/>
				<g>
					<polygon class="st1" points="311.3,259 308.5,263.9 305.6,259 					"/>
				</g>
				<g>
					<polygon class="st1" points="413,259 415.8,263.9 418.7,259 					"/>
				</g>
			</g>
		</g>
	</g>
	<polygon class="st7" points="621.3,77.7 621.3,85.3 621.3,85.3 621.3,100.4 701.7,100.4 701.7,85.3 701.8,85.3 701.8,77.7 	"/>
	<rect x="462.3" y="185.3" class="st7" width="80.4" height="23.4"/>
	<text transform="matrix(1.0359 0 0 1 484.7495 199.6582)" class="st1 st5 st15">JUSTIFICACIÓN</text>
	<rect x="569.7" y="185.3" class="st7" width="80.4" height="23.4"/>
	<text transform="matrix(1.0359 0 0 1 573.187 199.6582)" class="st1 st5 st15">ESTRATEGIA METODOLÓGICA</text>
	<rect x="515.2" y="263.9" class="st14" width="80.4" height="23.4"/>
	<g>
		<text transform="matrix(1.0359 0 0 1 540.0308 278.2715)" class="st1 st5 st15">ESPECÍFICAS</text>
	</g>
	<rect x="618.2" y="263.9" class="st14" width="80.4" height="23.4"/>
	<g>
		<text transform="matrix(1.0359 0 0 1 649.0864 278.2715)" class="st1 st5 st15">CLAVES</text>
	</g>
	<rect x="730.1" y="263.9" class="st14" width="82.7" height="23.4"/>
	<g>
		<text transform="matrix(1.0359 0 0 1 750.7056 278.2715)" class="st1 st5 st15">TRANSVERSALES</text>
	</g>
	<rect x="618.2" y="403.6" class="st16" width="80.4" height="23.4"/>
	<text transform="matrix(1.0359 0 0 1 638.3521 417.9297)" class="st1 st5 st9">MATEMÁTICAS</text>
	<rect x="375.6" y="474.8" class="st17" width="80.4" height="23.4"/>
	<g>
		<text transform="matrix(1.0359 0 0 1 383.1626 488.0391)" class="st1 st5 st15">MATRIZ DE CORRELACIÓN</text>
	</g>
	<rect x="730.1" y="403.6" class="st16" width="82.7" height="23.4"/>
	<text transform="matrix(1.0359 0 0 1 735.7476 413.9375)" class="st1 st5 st9">Ética para la construcción</text>
	<text transform="matrix(1.0359 0 0 1 735.7476 421.9375)" class="st1 st5 st9">de una cultura de paz</text>
	<rect x="618.2" y="439.3" class="st16" width="80.4" height="23.4"/>
	<text transform="matrix(1.0359 0 0 1 628.6323 453.6416)" class="st1 st5 st9">CIENCIAS NATURALES</text>
	<rect x="730.1" y="439.3" class="st16" width="82.7" height="23.4"/>
	<text transform="matrix(1.0359 0 0 1 735.7476 449.6494)" class="st1 st5 st9">Protección para la salud</text>
	<text transform="matrix(1.0359 0 0 1 735.7476 457.6494)" class="st1 st5 st9">y el medio ambiente</text>
	<rect x="462.3" y="27.2" class="st18" width="80.4" height="36.4"/>
	<g>
		<text transform="matrix(1.0359 0 0 1 469.1245 40.4219)" class="st1 st5 st9">Normativa Institucional</text>
		<text transform="matrix(1.0359 0 0 1 469.1245 46.9219)" class="st1 st5 st9">Resolución 1 - 2198</text>
		<text transform="matrix(1.0359 0 0 1 469.1245 53.3223)" class="st1 st5 st9">de 2019</text>
	</g>
	<polygon class="st18" points="569.7,9.2 569.7,16.8 569.7,17 569.7,40.2 569.7,63.6 650.1,63.6 650.1,40.2 650.1,17 650.1,16.8 
		650.1,9.2 	"/>
	<g>
		<rect x="575.4" y="18.5" class="st8" width="67.6" height="34"/>
		<text transform="matrix(1.0359 0 0 1 575.3784 23.0967)" class="st1 st5 st9">Programa de Nivel:</text>
		<text transform="matrix(1.0359 0 0 1 575.3784 29.5967)" class="st1 st5 st9">Tecnología, operario,</text>
		<text transform="matrix(1.0359 0 0 1 575.3784 35.9966)" class="st1 st5 st9">auxiliar, técnico,</text>
		<text transform="matrix(1.0359 0 0 1 575.3784 42.4966)" class="st1 st5 st9">complementaria y</text>
		<text transform="matrix(1.0359 0 0 1 575.3784 48.9966)" class="st1 st5 st9">módulos</text>
	</g>
	<polygon class="st17" points="618.2,314 618.2,321.6 618.2,321.8 618.2,345 618.2,368.4 698.6,368.4 698.6,345 698.6,321.8 
		698.6,321.6 698.6,314 	"/>
	<g>
		<text transform="matrix(1.0359 0 0 1 626.8638 330.7109)" class="st1 st5 st15">Capacidad indispensable</text>
		<text transform="matrix(1.0359 0 0 1 626.8638 336.6108)" class="st1 st5 st15">para el aprendizaje y</text>
		<text transform="matrix(1.0359 0 0 1 626.8638 342.6108)" class="st1 st5 st15">desarrollo personal y</text>
		<text transform="matrix(1.0359 0 0 1 626.8638 348.5107)" class="st1 st5 st15">social a lo largo de</text>
		<text transform="matrix(1.0359 0 0 1 626.8638 354.4106)" class="st1 st5 st15">la vida</text>
	</g>
	<polygon class="st17" points="268.2,403.6 268.2,411.2 268.2,411.4 268.2,434.6 268.2,457.9 456,457.9 456,434.6 456,411.4 
		456,411.2 456,403.6 	"/>
	<g>
		<rect x="275.7" y="416" class="st8" width="172.7" height="29.5"/>
		<text transform="matrix(1.0359 0 0 1 275.7319 420.2314)" class="st1 st5 st15">Se seleccionan a partir de la revisión de las Normas Sectoriales de </text>
		<text transform="matrix(1.0359 0 0 1 275.7319 426.1313)" class="st1 st5 st15">Competencia Laboral NSCL nacionales e internacionales vigentes y </text>
		<text transform="matrix(1.0359 0 0 1 275.7319 432.1313)" class="st1 st5 st15">registradas en el Sistema de Gestión Académico Administrativo, </text>
		<text transform="matrix(1.0359 0 0 1 275.7319 438.0312)" class="st1 st5 st15">Estructuras Funcionales de la Ocupación (EFO) o Cualificaciones y </text>
		<text transform="matrix(1.0359 0 0 1 275.7319 443.9312)" class="st1 st5 st15">que den respuesta a la ocupación.</text>
	</g>
	<polygon class="st17" points="730.1,314 730.1,324.8 730.1,325.1 730.1,358 730.1,391.2 812.7,391.2 812.7,314 	"/>
	<g>
		<text transform="matrix(1.0359 0 0 1 738.1147 333.248)" class="st1 st5 st15">Capacidades para la</text>
		<text transform="matrix(1.0359 0 0 1 738.1147 339.1479)" class="st1 st5 st15">interacción con otros y</text>
		<text transform="matrix(1.0359 0 0 1 738.1147 345.1479)" class="st1 st5 st15">para la organización,</text>
		<text transform="matrix(1.0359 0 0 1 738.1147 351.0479)" class="st1 st5 st15">gestión y relacionamiento</text>
		<text transform="matrix(1.0359 0 0 1 738.1147 356.9478)" class="st1 st5 st15">en las diferentes</text>
		<text transform="matrix(1.0359 0 0 1 738.1147 362.8477)" class="st1 st5 st15">dimensiones de la vida</text>
		<text transform="matrix(1.0359 0 0 1 738.1147 368.8477)" class="st1 st5 st15">(personal y social) y</text>
		<text transform="matrix(1.0359 0 0 1 738.1147 374.748)" class="st1 st5 st15">del trabajo</text>
	</g>
	<polygon class="st7" points="618.3,221.9 618.3,229.5 618.2,229.5 618.2,244.6 698.6,244.6 698.6,229.5 698.7,229.5 698.7,221.9 	
		"/>
	<text transform="matrix(1.0359 0 0 1 639.4907 235.9326)" class="st1 st5 st15">COMPETENCIAS</text>
	<polygon class="st7" points="621.3,149.1 621.3,156.7 621.3,156.7 621.3,171.8 701.7,171.8 701.7,156.7 701.8,156.7 701.8,149.1 	
		"/>
	<text transform="matrix(1.0359 0 0 1 630.6929 163.1602)" class="st1 st5 st15">PERFIL DEL INSTRUCTOR</text>
	<polygon class="st7" points="621.3,112.9 621.3,120.4 621.3,120.4 621.3,135.5 701.7,135.5 701.7,120.4 701.8,120.4 701.8,112.9 	
		"/>
	<text transform="matrix(1.0359 0 0 1 629.8521 126.8867)" class="st1 st5 st15">AMBIENTES REQUERIDOS</text>
	<text transform="matrix(1.0359 0 0 1 647.6284 91.7354)" class="st1 st5 st15">DURACIÓN</text>
	<g>
		<g>
			<line class="st0" x1="596.3" y1="125.1" x2="617.2" y2="125.1"/>
			<g>
				<polygon class="st1" points="616.3,127.9 621.3,125.1 616.3,122.3 				"/>
			</g>
		</g>
	</g>
	<g>
		<g>
			<polyline class="st0" points="617.2,88.9 608.8,88.9 608.8,112.8 596.3,112.8 			"/>
			<g>
				<polygon class="st1" points="616.3,86.1 621.3,88.9 616.3,91.8 				"/>
			</g>
		</g>
	</g>
	<g>
		<g>
			<polyline class="st0" points="617.2,160.4 608.8,160.4 608.8,135.7 596,135.7 			"/>
			<g>
				<polygon class="st1" points="616.3,157.5 621.3,160.4 616.3,163.2 				"/>
			</g>
		</g>
	</g>
	<g>
		<g>
			<polyline class="st0" points="608.8,181.4 608.8,171.6 569.5,171.6 569.5,148 			"/>
			<g>
				<polygon class="st1" points="611.6,180.6 608.8,185.5 605.9,180.6 				"/>
			</g>
		</g>
	</g>
	<g>
		<g>
			<polyline class="st0" points="771.4,259.6 771.4,254.3 556.2,254.3 556.2,259.8 			"/>
			<g>
				<polygon class="st1" points="774.2,258.8 771.4,263.7 768.5,258.8 				"/>
			</g>
			<g>
				<polygon class="st1" points="553.4,259 556.2,263.9 559.1,259 				"/>
			</g>
		</g>
	</g>
	<g>
		<g>
			<polyline class="st0" points="608.8,67.2 608.8,77 569.5,77 569.5,100.6 			"/>
			<g>
				<polygon class="st1" points="605.9,68 608.8,63.1 611.6,68 				"/>
			</g>
		</g>
	</g>
	<g>
		<g>
			<polyline class="st0" points="505.2,181.4 505.2,171.6 542.5,171.6 542.5,148 			"/>
			<g>
				<polygon class="st1" points="508,180.6 505.2,185.5 502.3,180.6 				"/>
			</g>
		</g>
	</g>
	<g>
		<g>
			<polyline class="st0" points="415.8,399.5 415.8,383.8 484.7,383.8 484.7,275.7 515.2,275.8 			"/>
			<g>
				<polygon class="st1" points="418.6,398.6 415.8,403.6 412.9,398.6 				"/>
			</g>
		</g>
	</g>
	<g>
		<g>
			<polyline class="st0" points="505.2,67.7 505.2,77.5 542.5,77.5 542.5,101.1 			"/>
			<g>
				<polygon class="st1" points="502.3,68.5 505.2,63.6 508,68.5 				"/>
			</g>
		</g>
	</g>
	<g>
		<g>
			<line class="st0" x1="661.5" y1="244.6" x2="661.5" y2="259.8"/>
			<g>
				<polygon class="st1" points="658.7,259 661.5,263.9 664.4,259 				"/>
			</g>
		</g>
	</g>
	<rect x="618.2" y="474.8" class="st16" width="80.4" height="23.4"/>
	<text transform="matrix(1.0359 0 0 1 654.1147 489.1406)" class="st1 st5 st9">TIC</text>
	<rect x="730.1" y="475" class="st16" width="82.7" height="23.4"/>
	<text transform="matrix(1.0359 0 0 1 735.7476 485.3613)" class="st1 st5 st9">Actividad física y hábitos</text>
	<text transform="matrix(1.0359 0 0 1 735.7476 493.3613)" class="st1 st5 st9">de vida saludable</text>
	<rect x="618.2" y="510.7" class="st16" width="80.4" height="23.4"/>
	<text transform="matrix(1.0359 0 0 1 648.5396 525.0664)" class="st1 st5 st9">INGLES</text>
	<rect x="730.1" y="510.7" class="st16" width="82.7" height="23.4"/>
	<text transform="matrix(1.0359 0 0 1 735.7476 521.0742)" class="st1 st5 st9">Cultura emprendedora y</text>
	<text transform="matrix(1.0359 0 0 1 735.7476 529.0742)" class="st1 st5 st9">empresarial saludable</text>
	<rect x="618.2" y="546.4" class="st16" width="80.4" height="23.4"/>
	<text transform="matrix(1.0359 0 0 1 635.5952 560.7793)" class="st1 st5 st9">COMUNICACIÓN</text>
	<rect x="730.1" y="546.4" class="st16" width="82.7" height="23.4"/>
	<text transform="matrix(1.0359 0 0 1 752.772 560.7793)" class="st1 st5 st9">Investigación</text>
	<rect x="730.1" y="582.1" class="st16" width="82.7" height="23.4"/>
	<text transform="matrix(1.0359 0 0 1 735.7476 592.499)" class="st1 st5 st9">Derechos fundamentales</text>
	<text transform="matrix(1.0359 0 0 1 735.7476 600.499)" class="st1 st5 st9">del trabajo</text>
	<g>
		<g>
			<line class="st0" x1="658.4" y1="287.3" x2="658.4" y2="309.2"/>
			<g>
				<polygon class="st1" points="655.6,308.4 658.4,313.3 661.3,308.4 				"/>
			</g>
		</g>
	</g>
	<g>
		<g>
			<line class="st0" x1="771.4" y1="287.3" x2="771.4" y2="309.2"/>
			<g>
				<polygon class="st1" points="768.5,308.4 771.4,313.3 774.2,308.4 				"/>
			</g>
		</g>
	</g>
	<polyline class="st0" points="618.2,345 606.9,345 606.9,558.1 618.2,558.1 	"/>
	<line class="st0" x1="618.2" y1="415.3" x2="606.9" y2="415.3"/>
	<line class="st0" x1="618.2" y1="451.5" x2="606.9" y2="451.5"/>
	<line class="st0" x1="618.2" y1="486.5" x2="606.9" y2="486.5"/>
	<line class="st0" x1="618.2" y1="522.4" x2="606.9" y2="522.4"/>
	<polyline class="st0" points="812.7,345 824,345 824,593.8 812.8,593.8 	"/>
	<line class="st0" x1="812.7" y1="415.3" x2="824" y2="415.3"/>
	<line class="st0" x1="812.7" y1="451.5" x2="824" y2="451.5"/>
	<line class="st0" x1="812.7" y1="486.5" x2="824" y2="486.5"/>
	<line class="st0" x1="812.7" y1="522.4" x2="824" y2="522.4"/>
	<line class="st0" x1="812.7" y1="558.1" x2="824" y2="558.1"/>
	<g>
		<g>
			<polyline class="st0" points="568.8,287.3 568.8,485.4 460.1,485.4 			"/>
			<g>
				<polygon class="st1" points="461,482.5 456,485.4 461,488.2 				"/>
			</g>
		</g>
	</g>
	<line class="st0" x1="555.4" y1="287.3" x2="456" y2="474.8"/>
	<g>
		<rect x="462.2" y="401.3" class="st4" width="103.9" height="33.9"/>
		<g>
			<text transform="matrix(1.0359 0 0 1 468.7231 410.7598)" class="st1 st5 st15">Permite evidenciar la relación</text>
			<text transform="matrix(1.0359 0 0 1 468.7231 416.6597)" class="st1 st5 st15">entre cada uno de los componentes</text>
			<text transform="matrix(1.0359 0 0 1 468.7231 422.6597)" class="st1 st5 st15">de la competencia que conforman</text>
			<text transform="matrix(1.0359 0 0 1 468.7231 428.5596)" class="st1 st5 st15">un programa de formación</text>
		</g>
	</g>
	<circle class="st16" cx="308" cy="557.9" r="29.2"/>
	<circle class="st16" cx="379.9" cy="557.9" r="29.2"/>
	<circle class="st16" cx="451.7" cy="557.9" r="29.2"/>
	<circle class="st16" cx="523.6" cy="557.9" r="29.2"/>
	<g>
		<text transform="matrix(1.0359 0 0 1 287.4829 556.5586)" class="st1 st5 st15">RESULTADOS DE</text>
		<text transform="matrix(1.0359 0 0 1 291.1089 562.458)" class="st1 st5 st15">APRENDIZAJE</text>
	</g>
	<g>
		<text transform="matrix(1.0359 0 0 1 353.8921 556.5586)" class="st1 st5 st15">CONOCIMIENTOS DE</text>
		<text transform="matrix(1.0359 0 0 1 371.8135 562.458)" class="st1 st5 st15">SABER</text>
	</g>
	<g>
		<text transform="matrix(1.0359 0 0 1 425.7661 556.5586)" class="st1 st5 st15">CONOCIMIENTOS DE</text>
		<text transform="matrix(1.0359 0 0 1 439.8545 562.458)" class="st1 st5 st15">PROCESO</text>
	</g>
	<g>
		<text transform="matrix(1.0359 0 0 1 506.5405 556.5586)" class="st1 st5 st15">CRITERIOS DE</text>
		<text transform="matrix(1.0359 0 0 1 506.9551 562.458)" class="st1 st5 st15">EVALUACIÓN</text>
	</g>
	<line class="st0" x1="415" y1="498.1" x2="415" y2="511.5"/>
	<g>
		<g>
			<polyline class="st0" points="308,524.6 308,511.3 523.6,511.3 523.6,524.6 			"/>
			<g>
				<polygon class="st1" points="310.8,523.7 308,528.7 305.1,523.7 				"/>
			</g>
			<g>
				<polygon class="st1" points="520.8,523.7 523.6,528.7 526.4,523.7 				"/>
			</g>
		</g>
	</g>
	<g>
		<g>
			<line class="st0" x1="379.9" y1="511.3" x2="379.9" y2="524.6"/>
			<g>
				<polygon class="st1" points="377,523.7 379.9,528.7 382.7,523.7 				"/>
			</g>
		</g>
	</g>
	<g>
		<g>
			<line class="st0" x1="451.7" y1="511.5" x2="451.7" y2="524.6"/>
			<g>
				<polygon class="st1" points="448.9,523.7 451.7,528.7 454.6,523.7 				"/>
			</g>
		</g>
	</g>
	<path class="st19" d="M533.8,83.4h-19.9c-3.1,0-5.7-2.6-5.7-5.7v-0.1c0-3.1,2.6-5.7,5.7-5.7h19.9c3.1,0,5.7,2.6,5.7,5.7v0.1
		C539.5,80.9,536.9,83.4,533.8,83.4z"/>
	<g>
		<text transform="matrix(1.0359 0 0 1 511.0308 80.2295)" class="st1 st20 st15">Se basa en</text>
	</g>
	<path class="st19" d="M599.1,83.4h-19.9c-3.1,0-5.7-2.6-5.7-5.7v-0.1c0-3.1,2.6-5.7,5.7-5.7h19.9c3.1,0,5.7,2.6,5.7,5.7v0.1
		C604.8,80.9,602.2,83.4,599.1,83.4z"/>
	<g>
		<text transform="matrix(1.0359 0 0 1 575.0112 80.2295)" class="st1 st20 st15">Se aplica en</text>
	</g>
</g>
<g id="Grupo_7015" transform="translate(1368.06 602.961)">
	<path id="Trazado_15442" class="st21" d="M-1275.8-89.7c2.1,0,3.9,1.7,3.9,3.9s-1.7,3.9-3.9,3.9s-3.9-1.7-3.9-3.9l0,0
		C-1279.7-87.9-1278-89.7-1275.8-89.7 M-1311.3-105.9c2,0,3.6,1.6,3.6,3.6s-1.6,3.6-3.6,3.6s-3.6-1.6-3.6-3.6l0,0
		C-1314.9-104.2-1313.3-105.9-1311.3-105.9z M-1338.8-36c2.1,0,3.9,1.7,3.9,3.9c0,2.1-1.7,3.9-3.9,3.9c-2.1,0-3.9-1.7-3.9-3.9
		C-1342.7-34.2-1341-36-1338.8-36L-1338.8-36L-1338.8-36z M-1338.8-39.3c1.3,0,2.5,0.3,3.6,0.9l12-12.9c-5.6-7-4.5-17.1,2.4-22.8
		c2.2-1.8,4.8-3,7.6-3.4v-17.8c-3.8-1-6-4.9-5-8.6c1-3.8,4.9-6,8.6-5c3.8,1,6,4.9,5,8.6c-0.6,2.5-2.6,4.4-5,5v17.6
		c4.2,0.3,8.1,2.2,10.9,5.3l16-10.9c-1.4-3.7,0.6-7.9,4.3-9.2c3.7-1.4,7.9,0.6,9.2,4.3c1.4,3.7-0.6,7.9-4.3,9.2
		c-2.5,0.9-5.2,0.4-7.2-1.4l-15.9,10.9c4.4,7.8,1.6,17.7-6.2,22c-5.7,3.2-12.8,2.7-18-1.4l-11.9,12.9c2.3,3.5,1.3,8.1-2.1,10.4
		c-3.5,2.3-8.1,1.3-10.4-2.1c-2.3-3.5-1.3-8.1,2.1-10.4C-1341.7-38.9-1340.3-39.3-1338.8-39.3L-1338.8-39.3z"/>
	<path id="Trazado_15443" class="st22" d="M-1348-87.7c6.3,0,11.5,5.1,11.5,11.5c0,0.8-0.1,1.7-0.3,2.5l5.5,2.2
		c3-6.2,8.6-10.7,15.3-12.3v3.7c-10.3,3-16.2,13.8-13.3,24.1c0.5,1.7,1.2,3.3,2.1,4.8l-2.5,2.7c-3.9-5.8-5-13-3-19.7l-5.5-2.2
		c-3.2,5.5-10.2,7.3-15.7,4.1c-5.5-3.2-7.3-10.2-4.1-15.7C-1355.8-85.5-1352-87.7-1348-87.7 M-1282.9-48.4c5.6,0,10.1,4.5,10.1,10.1
		s-4.5,10.1-10.1,10.1s-10.1-4.5-10.1-10.1c0-1.8,0.5-3.5,1.3-5l-2.5-2.1l-0.2,0.2c-7.6,7.6-19.5,8.9-28.6,3.1l2.5-2.7
		c9.2,5.4,21.2,2.4,26.6-6.9c3-5.2,3.5-11.4,1.3-17l3-2.1c3.2,7.4,2.3,16-2.3,22.6l2.5,2.1C-1287.6-47.6-1285.3-48.4-1282.9-48.4
		L-1282.9-48.4z M-1282.9-43.2c2.9,0,5.3,2.4,5.3,5.3s-2.4,5.3-5.3,5.3s-5.3-2.4-5.3-5.3C-1288.1-40.8-1285.8-43.2-1282.9-43.2
		L-1282.9-43.2z M-1348.1-82.3c3.2,0,5.8,2.6,5.8,5.8s-2.6,5.8-5.8,5.8c-3.2,0-5.8-2.6-5.8-5.8
		C-1353.9-79.7-1351.3-82.3-1348.1-82.3L-1348.1-82.3z M-1306.6-84.2c4.4,0.8,8.5,2.8,11.7,5.8l-3.1,2.1c-2.5-2.1-5.5-3.6-8.7-4.3
		L-1306.6-84.2z"/>
	<path id="Trazado_15444" class="st23" d="M-1275.8-89.7c2.1,0,3.9,1.7,3.9,3.9s-1.7,3.9-3.9,3.9s-3.9-1.7-3.9-3.9l0,0
		C-1279.7-87.9-1278-89.7-1275.8-89.7 M-1311.3-105.9c2,0,3.6,1.6,3.6,3.6s-1.6,3.6-3.6,3.6s-3.6-1.6-3.6-3.6l0,0
		C-1314.9-104.2-1313.3-105.9-1311.3-105.9z M-1326.8-61.6c0.1-7.9,5.9-14.6,13.7-15.8v-17.8c-3.8-1-6-4.9-5-8.6c1-3.8,4.9-6,8.6-5
		c3.8,1,6,4.9,5,8.6c-0.6,2.5-2.6,4.4-5,5v17.6c4.2,0.3,8.1,2.2,10.9,5.3l16-10.9c-1.4-3.7,0.6-7.9,4.3-9.2c3.7-1.4,7.9,0.6,9.2,4.3
		c1.4,3.7-0.6,7.9-4.3,9.2c-2.5,0.9-5.2,0.4-7.2-1.4l-15.9,10.9c2.1,3.8,2.6,8.2,1.5,12.4c-6.3-3.7-14.6-3.8-29.8-4.4
		C-1325.5-61.5-1326.2-61.6-1326.8-61.6L-1326.8-61.6z"/>
	<path id="Trazado_15445" class="st24" d="M-1286.4-47.8c0.9,1.4,1.8,3,2.7,4.7c2.9-0.5,5.6,1.5,6.1,4.4c0,0.3,0.1,0.6,0.1,0.9
		c0,1.3-0.5,2.5-1.3,3.5c0.9,1.2,2.1,2.3,3.3,3.2c3.9-4,3.7-10.5-0.3-14.3C-1278.7-48.3-1282.8-49.1-1286.4-47.8 M-1292.3-55
		c1,0.9,1.9,1.8,2.7,2.8c2.6-5.9,2.6-12.6,0-18.5l-3,2.1C-1290.8-64.3-1290.7-59.5-1292.3-55L-1292.3-55z M-1353.9-86.1
		c1,1.5,2,3,2.9,4.6c2.8-1.6,6.3-0.6,7.9,2.2c1.4,2.4,0.8,5.5-1.3,7.3c1.2,1.6,2.6,3,4.1,4.3c0.9-0.8,1.6-1.7,2.2-2.7l5.5,2.2
		c-0.5,1.6-0.8,3.2-0.9,4.9c1.1,0.5,2.3,0.9,3.5,1.2c0.3-8.4,6-15.6,14-17.9v-3.7c-6.7,1.6-12.3,6.1-15.3,12.3l-5.5-2.2
		c1.4-6.2-2.5-12.3-8.7-13.7C-1348.4-88-1351.4-87.6-1353.9-86.1L-1353.9-86.1z M-1306.6-84.2c4.4,0.8,8.5,2.8,11.7,5.8l-3.1,2.1
		c-2.5-2.1-5.5-3.6-8.7-4.3L-1306.6-84.2z"/>
</g>
<g id="Grupo_7016" transform="translate(1375.479 692.971)">
	<path id="Trazado_15446" class="st25" d="M-1321.5-109.2c21,0,38,1.1,38,2.5s-17,2.5-38,2.5s-38-1.1-38-2.5
		S-1342.4-109.2-1321.5-109.2"/>
	<path id="Trazado_15447" class="st26" d="M-1321.5-109.1c20.3,0,36.8,1.1,36.8,2.5s-16.5,2.5-36.8,2.5s-36.8-1.1-36.8-2.5
		S-1341.8-109.1-1321.5-109.1"/>
	<path id="Trazado_15448" class="st27" d="M-1321.5-109c19.7,0,35.6,1.1,35.6,2.4s-16,2.4-35.6,2.4s-35.6-1.1-35.6-2.4
		S-1341.2-109-1321.5-109"/>
	<path id="Trazado_15449" class="st28" d="M-1321.5-109c19,0,34.5,1,34.5,2.3s-15.4,2.3-34.5,2.3s-34.5-1-34.5-2.3
		S-1340.5-109-1321.5-109"/>
	<path id="Trazado_15450" class="st29" d="M-1321.5-108.9c18.4,0,33.3,1,33.3,2.2s-14.9,2.2-33.3,2.2s-33.3-1-33.3-2.2
		S-1339.9-108.9-1321.5-108.9"/>
	<path id="Trazado_15451" class="st30" d="M-1321.5-108.8c17.8,0,32.1,1,32.1,2.1s-14.4,2.1-32.1,2.1s-32.1-1-32.1-2.1
		S-1339.2-108.8-1321.5-108.8"/>
	<path id="Trazado_15452" class="st31" d="M-1321.5-108.7c17.1,0,31,0.9,31,2.1s-13.9,2.1-31,2.1s-31-0.9-31-2.1
		S-1338.6-108.7-1321.5-108.7"/>
	<path id="Trazado_15453" class="st32" d="M-1321.5-108.6c16.5,0,29.8,0.9,29.8,2s-13.3,2-29.8,2s-29.8-0.9-29.8-2
		S-1337.9-108.6-1321.5-108.6"/>
	<path id="Trazado_15454" class="st33" d="M-1321.5-108.6c15.8,0,28.6,0.9,28.6,1.9s-12.8,1.9-28.6,1.9s-28.6-0.9-28.6-1.9
		S-1337.3-108.6-1321.5-108.6"/>
	<path id="Trazado_15455" class="st34" d="M-1321.5-108.5c15.2,0,27.5,0.8,27.5,1.8s-12.3,1.8-27.5,1.8s-27.5-0.8-27.5-1.8
		S-1336.6-108.5-1321.5-108.5"/>
	<path id="Trazado_15456" class="st35" d="M-1321.5-108.4c14.5,0,26.3,0.8,26.3,1.8s-11.8,1.8-26.3,1.8s-26.3-0.8-26.3-1.8
		S-1336-108.4-1321.5-108.4"/>
	<path id="Trazado_15457" class="st36" d="M-1321.5-108.3c13.9,0,25.1,0.8,25.1,1.7s-11.2,1.7-25.1,1.7s-25.1-0.8-25.1-1.7
		S-1335.3-108.3-1321.5-108.3"/>
	<path id="Trazado_15458" class="st37" d="M-1321.5-108.3c13.2,0,24,0.7,24,1.6s-10.7,1.6-24,1.6s-24-0.7-24-1.6
		S-1334.7-108.3-1321.5-108.3"/>
	<path id="Trazado_15459" class="st37" d="M-1321.5-108.2c12.6,0,22.8,0.7,22.8,1.5s-10.2,1.5-22.8,1.5s-22.8-0.7-22.8-1.5
		S-1334.1-108.2-1321.5-108.2"/>
	<path id="Trazado_15460" class="st38" d="M-1321.5-108.1c11.9,0,21.6,0.6,21.6,1.4s-9.7,1.4-21.6,1.4s-21.6-0.6-21.6-1.4
		S-1333.4-108.1-1321.5-108.1"/>
	<path id="Trazado_15461" class="st39" d="M-1321.5-108c11.3,0,20.5,0.6,20.5,1.4s-9.2,1.4-20.5,1.4s-20.5-0.6-20.5-1.4
		S-1332.8-108-1321.5-108"/>
	<path id="Trazado_15462" class="st40" d="M-1321.5-107.9c10.7,0,19.3,0.6,19.3,1.3s-8.6,1.3-19.3,1.3s-19.3-0.6-19.3-1.3
		S-1332.1-107.9-1321.5-107.9"/>
	<path id="Trazado_15463" class="st41" d="M-1321.5-107.9c10,0,18.1,0.5,18.1,1.2s-8.1,1.2-18.1,1.2s-18.1-0.5-18.1-1.2
		S-1331.5-107.9-1321.5-107.9"/>
	<path id="Trazado_15464" class="st42" d="M-1321.5-107.8c9.4,0,16.9,0.5,16.9,1.1s-7.6,1.1-16.9,1.1s-16.9-0.5-16.9-1.1
		S-1330.8-107.8-1321.5-107.8"/>
	<path id="Trazado_15465" class="st43" d="M-1321.5-107.7c8.7,0,15.8,0.5,15.8,1.1s-7.1,1.1-15.8,1.1s-15.8-0.5-15.8-1.1
		S-1330.2-107.7-1321.5-107.7"/>
	<path id="Trazado_15466" class="st44" d="M-1321.5-107.6c8.1,0,14.6,0.4,14.6,1s-6.5,1-14.6,1s-14.6-0.4-14.6-1
		S-1329.5-107.6-1321.5-107.6"/>
	<path id="Trazado_15467" class="st45" d="M-1321.5-107.6c7.4,0,13.4,0.4,13.4,0.9s-6,0.9-13.4,0.9s-13.4-0.4-13.4-0.9
		S-1328.9-107.6-1321.5-107.6"/>
	<path id="Trazado_15468" class="st46" d="M-1321.5-107.5c6.8,0,12.3,0.4,12.3,0.8s-5.5,0.8-12.3,0.8s-12.3-0.4-12.3-0.8
		S-1328.2-107.5-1321.5-107.5"/>
	<path id="Trazado_15469" class="st47" d="M-1321.5-107.4c6.1,0,11.1,0.3,11.1,0.7s-5,0.7-11.1,0.7s-11.1-0.3-11.1-0.7
		S-1327.6-107.4-1321.5-107.4"/>
	<path id="Trazado_15470" class="st48" d="M-1321.5-107.3c5.5,0,9.9,0.3,9.9,0.7s-4.4,0.7-9.9,0.7s-9.9-0.3-9.9-0.7
		S-1327-107.3-1321.5-107.3"/>
	<path id="Trazado_15471" class="st49" d="M-1321.5-107.2c4.8,0,8.8,0.3,8.8,0.6s-3.9,0.6-8.8,0.6s-8.8-0.3-8.8-0.6
		S-1326.3-107.2-1321.5-107.2"/>
	<path id="Trazado_15472" class="st50" d="M-1321.5-107.2c4.2,0,7.6,0.2,7.6,0.5s-3.4,0.5-7.6,0.5s-7.6-0.2-7.6-0.5
		S-1325.7-107.2-1321.5-107.2"/>
</g>
<text transform="matrix(1 0 0 1 111.4028 525.9346)" class="st51"><tspan x="0" y="0" class="st1 st52 st53">COMPONENTES DE</tspan><tspan x="0" y="11.7" class="st1 st52 st53">LA GUÍA DE</tspan><tspan x="0" y="23.4" class="st1 st52 st53">DISEÑO CURRICULAR</tspan></text>
<text transform="matrix(1 0 0 1 111.4828 578.6589)" class="st54 st52 st55">CLICK PARA AUMENTAR</text>
<rect x="111.5" y="555.1" class="st54" width="105.8" height="13"/>
<text transform="matrix(1 0 0 1 116.1146 565.9539)" class="st4 st52 st56">MAPA SEMÁNTICO</text>
</svg>
