<svg xmlns="http://www.w3.org/2000/svg" viewBox="0 0 512 512"><defs><style>.cls-1,.cls-2{fill:#fff;}.cls-2{stroke:#d00030;stroke-miterlimit:10;stroke-width:15px;}</style></defs><title>h2</title><g id="Capa_2" data-name="Capa 2"><g id="Capa_1-2" data-name="Capa 1"><path class="cls-1" d="M502.88,405.4l8.21-43.62a52.37,52.37,0,0,0-41.69-61.19,53.88,53.88,0,0,0-12.47-.9,52.21,52.21,0,0,0-38-30,55.43,55.43,0,0,0-13.46-.88,52.25,52.25,0,0,0-37.61-29.19c-1.22-.23-2.43-.41-3.64-.56l7.66-40.16c2.08-10.92,3.2-16.77,3.79-20.18h.05c3.62-17-2.6-34.35-16.64-46.41h0a54.63,54.63,0,0,0-25.3-12.22,52.46,52.46,0,0,0-61.25,41.69l-23.89,125.7c-17.84,4.59-34.38,18.32-39.23,40.45-6.18,28.18-7.67,50.73-4.68,71,4.09,27.66,16.78,50.81,37.72,68.8C264.79,486.83,296,500,337.83,508c51.79,9.84,93.27,1.65,123.27-24.35C482.18,465.35,496.63,438.3,502.88,405.4ZM343.1,480.21c-38.74-7.36-65-19.17-82.22-34-34.19-29.37-33-70.54-23.86-112.29,3.33-15.14,18.12-21.64,28.82-19.61l-5.3,27.92c-.39,2,.24,3.18,1,3.81a3.22,3.22,0,0,0,1.44.71c.73.14,3.16.19,3.83-3.33S300.31,167,300.31,167a24.12,24.12,0,0,1,28.21-19.2,26.44,26.44,0,0,1,12.16,5.9c5.64,4.83,9,11.88,7.42,19.09,0,0-16.6,87-20.68,108.44,0,.05,0,.08,0,.13l-.85,4.47a3.93,3.93,0,0,0,7.72,1.47l.22-1.16a24.13,24.13,0,0,1,47.33,9.4l-3.24,17.17a3.87,3.87,0,0,0,7.6,1.45l.18-1c2.27-11.92,15.43-18,27.34-15.77a24.08,24.08,0,0,1,19.16,28.2L429.58,343a3.76,3.76,0,0,0,1.25,3.56,3.81,3.81,0,0,0,1.75.84,3.76,3.76,0,0,0,4.4-3l.24-1.32c2.06-10.84,15.37-16.93,26.9-14.73a24.12,24.12,0,0,1,19.2,28.21l-8.2,43.56C467.43,440.63,440.08,498.64,343.1,480.21Z"/><polygon class="cls-1" points="149.56 95.33 149.56 206.32 186.68 206.32 131 262 75.32 206.32 112.44 206.32 112.44 95.33 149.56 95.33"/><polygon class="cls-1" points="112.44 111.36 112.44 55.68 75.32 55.68 131 0 186.68 55.68 149.56 55.68 149.56 111.36 112.44 111.36"/><polygon class="cls-1" points="166.68 149.56 55.68 149.56 55.68 186.68 0 131 55.68 75.32 55.68 112.44 166.68 112.44 166.68 149.56"/><polygon class="cls-1" points="150.64 112.44 206.32 112.44 206.32 75.32 262 131 206.32 186.68 206.32 149.56 150.64 149.56 150.64 112.44"/><circle class="cls-2" cx="131" cy="131" r="29.72"/></g></g></svg>