<svg xmlns="http://www.w3.org/2000/svg" viewBox="0 0 512 512.44"><defs><style>.cls-1{fill:#d00030;}.cls-2{fill:#fff;}</style></defs><title>m2</title><g id="Capa_2" data-name="Capa 2"><g id="Capa_1-2" data-name="Capa 1"><path class="cls-1" d="M347.67,170.86v46.77C329.25,222.32,316,235,316,249.77v45.45a25.14,25.14,0,0,0,1.8,9.29c-35.14-5.64-68.62-17.89-96.57-36.73C224.46,217.37,278.71,176.36,347.67,170.86Z"/><polygon class="cls-2" points="149.56 95.33 149.56 206.32 186.68 206.32 131 262 75.32 206.32 112.44 206.32 112.44 95.33 149.56 95.33"/><polygon class="cls-2" points="112.44 111.36 112.44 55.68 75.32 55.68 131 0 186.68 55.68 149.56 55.68 149.56 111.36 112.44 111.36"/><polygon class="cls-2" points="166.68 149.56 55.68 149.56 55.68 186.68 0 131 55.68 75.32 55.68 112.44 166.68 112.44 166.68 149.56"/><polygon class="cls-2" points="150.64 112.44 206.32 112.44 206.32 75.32 262 131 206.32 186.68 206.32 149.56 150.64 149.56 150.64 112.44"/><path class="cls-2" d="M371.82,149.76H339c-76.86,6.13-135.39,53.71-139.16,113.13l-.2,129.75c0,33.26,17.91,65.19,49.14,87.62,28.88,20.75,66.76,32.18,106.65,32.18S433.16,501,462,480.26c31.23-22.43,50-54.36,50-87.62V262.89C508.23,203.47,448.68,155.89,371.82,149.76Zm-2.23,27.94c61.89,4.94,110.58,41.75,113.45,87-25.08,16.91-55.13,27.9-86.67,33a22.74,22.74,0,0,0,1.62-8.33v-40.8c0-13.3-11.87-24.63-28.4-28.85Zm-14.2,60.63c7.83,0,14.2,4.57,14.2,10.2v40.8c0,5.62-6.37,10.2-14.2,10.2s-14.2-4.58-14.2-10.2v-40.8C341.19,242.9,347.56,238.33,355.39,238.33Zm-14.2-60.63v42c-16.53,4.22-28.4,15.55-28.4,28.85v40.8a22.74,22.74,0,0,0,1.62,8.33c-31.54-5.06-61.59-16.05-86.67-33C230.61,219.45,279.3,182.64,341.19,177.7Zm142,215c0,50.61-57.33,91.79-127.79,91.79S227.6,443.29,227.6,392.68V291.17c36.78,19.61,81.15,30.2,127.79,30.2s91-10.59,127.79-30.2Z"/></g></g></svg>