<svg xmlns="http://www.w3.org/2000/svg" width="74" height="68.22" viewBox="0 0 74 68.22">
  <g id="Grupo_7418" data-name="Grupo 7418" transform="translate(-1375.625 -1625.823)">
    <path id="Trazado_18507" data-name="Trazado 18507" d="M1375.625,1832.865c.94-2.319,2.034-3.17,4.1-3.179.939,0,1.878,0,2.817,0h2.336v-.8c0-2.239,0-4.478,0-6.717,0-1.194.529-1.729,1.71-1.733q3.07-.01,6.14,0c1.046,0,1.7.576,1.689,1.459s-.654,1.428-1.716,1.432c-1.565.006-3.13,0-4.695.005a1.115,1.115,0,0,0-.188.042v6.31c1.784,0,3.558-.016,5.331,0a3.866,3.866,0,0,1,3.811,3.211,4.335,4.335,0,0,1,.057.79q0,6.536,0,13.073c0,2.737-1.566,4.306-4.292,4.31-4.117.005-8.234,0-12.351,0-2.772,0-3.7-.621-4.746-3.18Zm2.891,7.515c0,2.167,0,4.335,0,6.5,0,.968.333,1.3,1.3,1.3q6.5,0,13,0c.961,0,1.3-.341,1.3-1.305q.006-6.5,0-13c0-.965-.332-1.295-1.3-1.3q-6.5,0-13,0c-.969,0-1.295.33-1.3,1.3C1378.512,1836.046,1378.516,1838.214,1378.516,1840.381Z" transform="translate(0 -157.04)" fill="#cb4f29"/>
    <path id="Trazado_18508" data-name="Trazado 18508" d="M1495.04,1672.646c1.751,0,3.435-.005,5.12,0a3.881,3.881,0,0,1,4.079,4.083q0,6.574,0,13.149a3.88,3.88,0,0,1-4.154,4.153q-6.647.013-13.293,0a3.851,3.851,0,0,1-3.933-3.936q-.022-6.755,0-13.51a3.847,3.847,0,0,1,3.929-3.937c1.733-.016,3.466,0,5.257,0v-6.356h-3.566c-.506,0-1.012.014-1.517,0a1.464,1.464,0,0,1-1.5-1.441,1.44,1.44,0,0,1,1.492-1.44c1.682-.02,3.365-.006,5.1-.006v-6.938h-.784q-5.346,0-10.692,0a4.359,4.359,0,0,1-4.663-4.641q0-10.692,0-21.385a4.338,4.338,0,0,1,4.618-4.608q13-.005,26.009,0a4.36,4.36,0,0,1,4.637,4.667q0,10.584,0,21.168c0,3.035-1.762,4.8-4.792,4.8l-10.693,0h-.665v6.934h24.314c1.493,0,1.951.453,1.951,1.93,0,2.405,0,4.811,0,7.282.271.014.5.034.733.035,1.541,0,3.083-.013,4.624.006a3.834,3.834,0,0,1,3.883,3.835q.036,6.863,0,13.727a3.812,3.812,0,0,1-3.83,3.813q-6.863.037-13.727,0a3.807,3.807,0,0,1-3.808-3.757q-.047-6.935,0-13.871a3.813,3.813,0,0,1,3.82-3.747c1.757-.028,3.515-.018,5.273-.027.019,0,.039-.023.1-.063v-6.216H1495.04Zm-1.534-19.076h12.853c1.448,0,1.925-.465,1.925-1.883q0-10.579,0-21.157c0-1.293-.507-1.813-1.776-1.814q-12.962,0-25.923,0c-1.274,0-1.779.516-1.78,1.809q0,10.615,0,21.23c0,1.322.5,1.815,1.847,1.815Q1487.079,1653.573,1493.506,1653.571Zm-7.765,29.773c0,2.191,0,4.383,0,6.574,0,.874.355,1.223,1.229,1.223q6.5.006,13,0c1.059,0,1.37-.314,1.37-1.381q0-6.466,0-12.931c0-.959-.334-1.292-1.307-1.292q-6.5,0-13,0c-.966,0-1.292.331-1.294,1.3Q1485.736,1680.093,1485.741,1683.344Zm34.1-7.807q-3.251,0-6.5,0c-.97,0-1.3.329-1.3,1.3q0,6.5,0,13c0,.972.33,1.3,1.3,1.3q6.429,0,12.859,0c1.168,0,1.446-.279,1.447-1.445q0-6.43,0-12.859c0-.969-.327-1.3-1.3-1.3Q1523.1,1675.531,1519.846,1675.536Z" transform="translate(-80.924)" fill="#cb4f29"/>
    <path id="Trazado_18509" data-name="Trazado 18509" d="M1494.583,1821.908a1.449,1.449,0,0,1-1.464,1.447,1.44,1.44,0,1,1,.057-2.879A1.445,1.445,0,0,1,1494.583,1821.908Z" transform="translate(-93.67 -157.073)" fill="#cb4f29"/>
    <path id="Trazado_18510" data-name="Trazado 18510" d="M1410.426,1919.129c-1.081,0-2.162.01-3.243,0a1.449,1.449,0,1,1,.007-2.883q3.315-.017,6.63,0a1.45,1.45,0,1,1-.007,2.887C1412.684,1919.14,1411.555,1919.129,1410.426,1919.129Z" transform="translate(-24.182 -234.344)" fill="#cb4f29"/>
    <path id="Trazado_18511" data-name="Trazado 18511" d="M1524.883,1736.5q-4.184,0-8.369,0a1.5,1.5,0,0,1-1.648-1.2c-.173-.94.547-1.687,1.655-1.69q5.123-.011,10.246-.005,3.283,0,6.566,0c1.06,0,1.717.543,1.736,1.413.021.9-.649,1.474-1.744,1.475Q1529.1,1736.5,1524.883,1736.5Z" transform="translate(-112.339 -86.973)" fill="#cb4f29"/>
    <path id="Trazado_18512" data-name="Trazado 18512" d="M1521.742,1700.575c-1.731,0-3.461.005-5.192,0a1.459,1.459,0,1,1-.009-2.889q5.192-.009,10.384,0a1.458,1.458,0,1,1,.009,2.886c-1.731.008-3.461,0-5.192,0Z" transform="translate(-112.37 -57.984)" fill="#cb4f29"/>
    <path id="Trazado_18513" data-name="Trazado 18513" d="M1582.964,1664.621c-.769,0-1.538.01-2.307,0a1.444,1.444,0,1,1-.041-2.882q2.378-.025,4.757,0a1.445,1.445,0,1,1-.031,2.882C1584.55,1664.632,1583.757,1664.621,1582.964,1664.621Z" transform="translate(-164.187 -28.97)" fill="#cb4f29"/>
    <path id="Trazado_18514" data-name="Trazado 18514" d="M1519.644,1664.623c-.769,0-1.539.013-2.308,0a1.446,1.446,0,1,1,.017-2.882q2.308-.02,4.616,0a1.446,1.446,0,1,1-.017,2.882C1521.183,1664.634,1520.413,1664.623,1519.644,1664.623Z" transform="translate(-113.094 -28.972)" fill="#cb4f29"/>
    <path id="Trazado_18515" data-name="Trazado 18515" d="M1607.568,1699.2a1.442,1.442,0,1,1-1.42-1.5A1.461,1.461,0,0,1,1607.568,1699.2Z" transform="translate(-184.838 -57.999)" fill="#cb4f29"/>
    <path id="Trazado_18516" data-name="Trazado 18516" d="M1546.694,1919.13c-1.081,0-2.162.009-3.243,0a1.453,1.453,0,1,1,.016-2.885q3.279-.014,6.558,0a1.455,1.455,0,1,1-.016,2.888C1548.9,1919.137,1547.8,1919.13,1546.694,1919.13Z" transform="translate(-134.117 -234.345)" fill="#cb4f29"/>
    <path id="Trazado_18517" data-name="Trazado 18517" d="M1682.917,1919.138q-1.477,0-2.954,0c-1.227,0-1.912-.53-1.9-1.463s.685-1.426,1.935-1.427l5.981,0c1.225,0,1.91.528,1.9,1.463-.011.911-.682,1.428-1.862,1.43Q1684.467,1919.14,1682.917,1919.138Z" transform="translate(-244.049 -234.353)" fill="#cb4f29"/>
  </g>
</svg>
