<svg xmlns="http://www.w3.org/2000/svg" width="73.821" height="70.116" viewBox="0 0 73.821 70.116">
  <g id="Grupo_7417" data-name="Grupo 7417" transform="translate(-802.222 -1129.193)">
    <path id="Trazado_18488" data-name="Trazado 18488" d="M804.691,1197.183c1.6-.293,3.129-.567,4.654-.855,3.923-.74,7.843-1.493,11.766-2.227a4.39,4.39,0,0,1,4.153,1.253c1.128,1.13,1.992,1.141,3.089.038a4.5,4.5,0,0,1,4.363-1.263c2.1.42,4.217.8,6.36,1.2.066-.924.128-1.788.2-2.751q-1.828-.365-3.654-.73c-2.659-.535-5.3-1.158-7.982-1.564a9.824,9.824,0,0,0-3.232.3c-5.149,1-10.289,2.043-15.432,3.073-1.226.245-1.824-.214-1.825-1.447q-.009-6.456,0-12.913c0-.967.467-1.528,1.237-1.521s1.219.568,1.22,1.541q.006,5.265,0,10.531v1.174c1.381-.274,2.7-.532,4.012-.8,3.813-.765,7.624-1.541,11.441-2.286.419-.082.538-.235.538-.644q-.014-12.452-.007-24.9a2.589,2.589,0,0,0-.049-.311c-1.352.266-2.693.527-4.034.8-3.738.749-7.47,1.524-11.216,2.23-.626.118-.7.377-.7.9.021,2.613.016,5.227.01,7.84,0,.843-.4,1.358-1.072,1.452a1.232,1.232,0,0,1-1.381-1.289c-.024-1.073-.006-2.148-.006-3.3l-2.462.632v.936q0,7.379,0,14.758a4.718,4.718,0,0,1-.025.767,1.206,1.206,0,0,1-1.246,1.027,1.186,1.186,0,0,1-1.163-1.034,3.521,3.521,0,0,1-.024-.69q0-8.109,0-16.219c0-1.233.2-1.491,1.411-1.808.891-.234,1.776-.495,2.675-.687.609-.13.907-.358.851-1.056-.076-.942-.026-1.895-.021-2.843a1.28,1.28,0,0,1,1.2-1.494c6.02-1.211,12.039-2.427,18.066-3.6a4.507,4.507,0,0,1,1.661.146q8.357,1.652,16.708,3.331c1.518.3,1.724.542,1.724,2.087v3.179c1.249.332,2.456.649,3.66.975,1,.272,1.252.595,1.254,1.625,0,2.253,0,4.506,0,6.85a18.534,18.534,0,0,1,15.95,1.744c0-1.588.115-3.1-.03-4.582a3.573,3.573,0,0,0-3.617-3.127c-2.69-.02-5.381-.005-8.071-.005-.179,0-.359.011-.538,0a1.23,1.23,0,0,1-1.231-1.218,1.19,1.19,0,0,1,1.215-1.229c3.074-.015,6.156-.12,9.221.048a6,6,0,0,1,5.541,6.026c.028,1.767.02,3.536,0,5.3a1.411,1.411,0,0,0,.491,1.2,16.243,16.243,0,0,1,1.567,1.686,1.235,1.235,0,1,1-1.876,1.565,16.054,16.054,0,1,0,3.455,9.028,30.24,30.24,0,0,0-1.074-4.928,1.271,1.271,0,0,1,.7-1.642,1.242,1.242,0,0,1,1.609.79c.062.14.114.285.165.43a18.419,18.419,0,0,1-7.31,21.774l-.8.522h5.095c.948,0,1.9-.007,2.844,0a1.113,1.113,0,0,1,1.244,1.016c.1,2.146.235,4.32-.784,6.327a8.417,8.417,0,0,1-7.956,4.94c-8.3.032-16.6.012-24.9.012l-9.992,0a6.271,6.271,0,0,1-.691-.012,1.223,1.223,0,0,1,.028-2.441c.254-.025.512-.01.768-.01,11.427,0,22.855-.071,34.281.044,3.9.039,7.277-2.746,6.8-7.359H847.732c0,.307.006.629,0,.95-.021,1-.462,1.443-1.474,1.446q-5.188.012-10.377.005l-3.613,0c-1.379,0-1.743-.357-1.753-1.706,0-.225,0-.45,0-.713H804.8a6.163,6.163,0,0,0,6.054,7.336q7.648.011,15.3,0c1.314,0,1.911.395,1.894,1.251-.016.832-.594,1.208-1.862,1.208q-7.456,0-14.912,0a8.629,8.629,0,0,1-9.046-9.019c0-.564,0-1.127,0-1.691.007-1.162.417-1.583,1.562-1.587,1.5-.005,3.009,0,4.586,0v-1.745q0-3.8,0-7.61c0-1.052.421-1.605,1.211-1.615.823-.011,1.251.551,1.251,1.653q0,4.189,0,8.378c0,.279,0,.557,0,.938h20.151c1.7,0,1.958.255,1.987,1.935,0,.148.015.3.024.484h12.2c.226-.717-.279-1.782.652-2.176a9.144,9.144,0,0,1,2.314-.342c-.57-.4-1.142-.771-1.683-1.185a18.155,18.155,0,0,1-6.957-11.057.945.945,0,0,0-.9-.9c-2.094-.351-4.181-.753-6.262-1.172a2.427,2.427,0,0,0-2.428.715,4.19,4.19,0,0,1-6.223,0,2.46,2.46,0,0,0-2.428-.719q-8.67,1.659-17.347,3.278c-1.072.2-1.7-.29-1.708-1.37q-.019-2.882,0-5.765a1.242,1.242,0,0,1,1.2-1.4c.745-.016,1.249.542,1.256,1.428C804.7,1194.184,804.691,1195.641,804.691,1197.183Zm44.27-25.85-2.458-.633c0,.409,0,.715,0,1.021,0,1.665.012,3.33-.007,5a1.238,1.238,0,0,1-1.228,1.3,1.26,1.26,0,0,1-1.222-1.313c-.01-.2,0-.41,0-.615,0-3.382-.012-6.763.012-10.145,0-.528-.115-.742-.676-.849-3.518-.671-7.026-1.392-10.538-2.1-1.571-.315-3.142-.627-4.748-.948v25.778l11.664,2.319.826-2.418-3.862-.828c-1.275-.274-2.552-.541-3.824-.827a1.248,1.248,0,0,1-1.124-1.458,1.264,1.264,0,0,1,1.66-.919c2.128.448,4.259.881,6.378,1.365a14.461,14.461,0,0,1,1.8.663,18.464,18.464,0,0,1,6.96-6.848.843.843,0,0,0,.374-.573C848.97,1176.009,848.961,1173.7,848.961,1171.334Z" transform="translate(0 -23.969)" fill="#cb4f29"/>
    <path id="Trazado_18489" data-name="Trazado 18489" d="M1044.226,1333.122v-9.848c-.435,0-.839.025-1.238-.005a1.217,1.217,0,0,1-1.181-1.186,1.185,1.185,0,0,1,1.191-1.248q3.727-.039,7.454,0c.791.009,1.183.55,1.185,1.485q.008,4.381,0,8.761v2.038c.43,0,.828-.019,1.224,0a1.223,1.223,0,0,1,1.229,1.218,1.192,1.192,0,0,1-1.217,1.226q-4.918.03-9.837,0a1.194,1.194,0,0,1-1.232-1.212,1.217,1.217,0,0,1,1.217-1.229C1043.4,1333.1,1043.785,1333.122,1044.226,1333.122Zm2.544-9.821v9.76h2.344v-9.76Z" transform="translate(-190.379 -152.266)" fill="#cb4f29"/>
    <path id="Trazado_18490" data-name="Trazado 18490" d="M866.617,1386.681q4.335,0,8.671,0a3.672,3.672,0,0,1,.765.028,1.223,1.223,0,0,1,.043,2.4,2.67,2.67,0,0,1-.687.036q-8.824,0-17.649,0a3.821,3.821,0,0,1-.46-.011,1.23,1.23,0,0,1-1.128-1.236,1.2,1.2,0,0,1,1.161-1.2c.714-.04,1.432-.015,2.148-.015h7.136Z" transform="translate(-42.869 -204.602)" fill="#cb4f29"/>
    <path id="Trazado_18491" data-name="Trazado 18491" d="M883.969,1362.752q4.106,0,8.211,0a2.407,2.407,0,0,1,.757.069,1.215,1.215,0,0,1-.256,2.374c-.533.048-1.073.015-1.61.015H876.031c-.2,0-.41.008-.614,0a1.235,1.235,0,0,1-1.28-1.244,1.217,1.217,0,0,1,1.315-1.205c2.532-.016,5.065-.008,7.6-.01h.921Z" transform="translate(-57.144 -185.588)" fill="#cb4f29"/>
    <path id="Trazado_18492" data-name="Trazado 18492" d="M1073.649,1129.193a9.8,9.8,0,0,1,6.722,2.671c.7.655.783,1.385.249,1.942-.507.529-1.2.487-1.9-.116a7.327,7.327,0,0,0-10.157.005c-.686.6-1.4.639-1.9.1a1.3,1.3,0,0,1,.263-1.946A9.9,9.9,0,0,1,1073.649,1129.193Z" transform="translate(-209.859)" fill="#cb4f29"/>
    <path id="Trazado_18493" data-name="Trazado 18493" d="M1057.486,1280.322a3.688,3.688,0,1,1,3.649-3.684A3.712,3.712,0,0,1,1057.486,1280.322Zm1.187-3.714a1.224,1.224,0,1,0-1.178,1.252A1.239,1.239,0,0,0,1058.673,1276.607Z" transform="translate(-199.877 -114.23)" fill="#cb4f29"/>
    <path id="Trazado_18494" data-name="Trazado 18494" d="M851.308,1223.1a1.156,1.156,0,0,1-1.19-1.026,1.194,1.194,0,0,1,1.014-1.4c1.747-.394,3.5-.752,5.252-1.124.7-.149,1.4-.323,2.1-.44a1.229,1.229,0,0,1,1.434.974,1.2,1.2,0,0,1-.9,1.41c-2.471.551-4.952,1.062-7.429,1.586A2.427,2.427,0,0,1,851.308,1223.1Z" transform="translate(-38.041 -71.431)" fill="#cb4f29"/>
    <path id="Trazado_18495" data-name="Trazado 18495" d="M858.73,1188.891a1.164,1.164,0,0,1,1.232,1.012,1.2,1.2,0,0,1-1.008,1.4c-1.542.361-3.094.679-4.643,1.013-.9.194-1.795.409-2.7.574a1.242,1.242,0,0,1-1.438-.972,1.189,1.189,0,0,1,.889-1.414c2.468-.552,4.945-1.064,7.419-1.59A2.447,2.447,0,0,1,858.73,1188.891Z" transform="translate(-38.083 -47.437)" fill="#cb4f29"/>
    <path id="Trazado_18496" data-name="Trazado 18496" d="M850.151,1250.011a1.149,1.149,0,0,1,.966-1.025c2.419-.534,4.841-1.058,7.269-1.555a1.222,1.222,0,0,1,1.563.976,1.253,1.253,0,0,1-1.076,1.437c-2.4.524-4.793,1.039-7.2,1.53A1.238,1.238,0,0,1,850.151,1250.011Z" transform="translate(-38.083 -93.926)" fill="#cb4f29"/>
    <path id="Trazado_18497" data-name="Trazado 18497" d="M851.605,1281.569c-.9-.025-1.322-.374-1.453-1.035a1.2,1.2,0,0,1,1.022-1.393c1.794-.407,3.6-.776,5.4-1.161.65-.139,1.3-.3,1.949-.416a1.24,1.24,0,0,1,1.413.906,1.146,1.146,0,0,1-.747,1.421C856.6,1280.5,854,1281.045,851.605,1281.569Z" transform="translate(-38.068 -117.885)" fill="#cb4f29"/>
    <path id="Trazado_18498" data-name="Trazado 18498" d="M1091.047,1155.642a5.032,5.032,0,0,1-.843,1c-.477.333-.964.117-1.4-.216a2.42,2.42,0,0,0-3.455,0c-.04.031-.078.066-.12.1a1.218,1.218,0,0,1-1.6-1.835,4.928,4.928,0,0,1,6.891-.018A5.286,5.286,0,0,1,1091.047,1155.642Z" transform="translate(-223.298 -19.134)" fill="#cb4f29"/>
    <path id="Trazado_18499" data-name="Trazado 18499" d="M846.641,1435.9a1.224,1.224,0,1,1-1.2-1.245A1.239,1.239,0,0,1,846.641,1435.9Z" transform="translate(-33.352 -242.725)" fill="#cb4f29"/>
    <path id="Trazado_18500" data-name="Trazado 18500" d="M869.406,1434.653a1.224,1.224,0,1,1-1.259,1.187A1.236,1.236,0,0,1,869.406,1434.653Z" transform="translate(-52.385 -242.725)" fill="#cb4f29"/>
    <path id="Trazado_18501" data-name="Trazado 18501" d="M1084.913,1434.653a1.226,1.226,0,1,1-1.186,1.243A1.243,1.243,0,0,1,1084.913,1434.653Z" transform="translate(-223.69 -242.725)" fill="#cb4f29"/>
    <path id="Trazado_18502" data-name="Trazado 18502" d="M1108.885,1437.084a1.226,1.226,0,1,1,1.227-1.205A1.242,1.242,0,0,1,1108.885,1437.084Z" transform="translate(-242.708 -242.708)" fill="#cb4f29"/>
    <path id="Trazado_18503" data-name="Trazado 18503" d="M1098.415,1178.339a1.214,1.214,0,0,1-1.184,1.251,1.227,1.227,0,0,1-.048-2.453A1.211,1.211,0,0,1,1098.415,1178.339Z" transform="translate(-233.429 -38.096)" fill="#cb4f29"/>
    <path id="Trazado_18504" data-name="Trazado 18504" d="M954.232,1223.049l-6.03-1.281c-.449-.1-.9-.17-1.346-.3a1.228,1.228,0,0,1-.926-1.463,1.214,1.214,0,0,1,1.459-.929q3.678.753,7.344,1.566a1.216,1.216,0,0,1,.975,1.43A1.272,1.272,0,0,1,954.232,1223.049Z" transform="translate(-114.169 -71.405)" fill="#cb4f29"/>
    <path id="Trazado_18505" data-name="Trazado 18505" d="M955.785,1191.577a1.243,1.243,0,0,1-1.469,1.307q-3.68-.759-7.346-1.584a1.209,1.209,0,0,1-1.005-1.407,1.189,1.189,0,0,1,1.492-.97c2.481.5,4.954,1.033,7.424,1.585A1.138,1.138,0,0,1,955.785,1191.577Z" transform="translate(-114.205 -47.438)" fill="#cb4f29"/>
    <path id="Trazado_18506" data-name="Trazado 18506" d="M947.364,1247.4c.719.151,1.594.331,2.468.518,1.6.342,3.2.68,4.794,1.037a1.239,1.239,0,0,1,1.091,1.482,1.261,1.261,0,0,1-1.6.918q-3.526-.737-7.047-1.495a1.248,1.248,0,0,1-1.138-1.388A1.269,1.269,0,0,1,947.364,1247.4Z" transform="translate(-114.183 -93.932)" fill="#cb4f29"/>
  </g>
</svg>
